<svg width="29" height="30" viewBox="0 0 29 30" fill="none" xmlns="http://www.w3.org/2000/svg">
<path d="M17.6722 22.25L19.4847 26.3281M25.9795 19.8333L19.9378 25.875M18.7295 4.47634C20.5008 5.19335 21.7503 6.92992 21.7503 8.95833C21.7503 10.9868 20.5008 12.7234 18.7295 13.4403M14.5003 18.625H9.66699C7.41494 18.625 6.28892 18.625 5.40069 18.9929C4.21638 19.4835 3.27546 20.4245 2.78491 21.6087C2.41699 22.497 2.41699 23.6229 2.41699 25.875M16.3128 8.95833C16.3128 11.6277 14.1488 13.7917 11.4795 13.7917C8.81011 13.7917 6.64616 11.6277 6.64616 8.95833C6.64616 6.28896 8.81011 4.125 11.4795 4.125C14.1488 4.125 16.3128 6.28896 16.3128 8.95833Z" stroke="black" stroke-opacity="0.8" stroke-width="2.41667" stroke-linecap="round" stroke-linejoin="round"/>
</svg>
