<svg width="33" height="33" viewBox="0 0 33 33" fill="none" xmlns="http://www.w3.org/2000/svg">
<path d="M26.125 19.25C29.1625 19.25 31.625 22 31.625 24.0625C31.625 25.2016 30.7016 26.125 29.5625 26.125H28.875M23.375 15.125C25.6532 15.125 27.5 13.2782 27.5 11C27.5 8.72183 25.6532 6.875 23.375 6.875M6.875 19.25C3.83743 19.25 1.375 22 1.375 24.0625C1.375 25.2016 2.29841 26.125 3.4375 26.125H4.125M9.625 15.125C7.34683 15.125 5.5 13.2782 5.5 11C5.5 8.72183 7.34683 6.875 9.625 6.875M22.6875 26.125H10.3125C9.17341 26.125 8.25 25.2016 8.25 24.0625C8.25 20.625 12.375 19.25 16.5 19.25C20.625 19.25 24.75 20.625 24.75 24.0625C24.75 25.2016 23.8266 26.125 22.6875 26.125ZM20.625 11C20.625 13.2782 18.7782 15.125 16.5 15.125C14.2218 15.125 12.375 13.2782 12.375 11C12.375 8.72183 14.2218 6.875 16.5 6.875C18.7782 6.875 20.625 8.72183 20.625 11Z" stroke="black" stroke-opacity="0.8" stroke-width="2.0625" stroke-linecap="round" stroke-linejoin="round"/>
</svg>
