<svg width="26" height="26" viewBox="0 0 26 26" fill="none" xmlns="http://www.w3.org/2000/svg">
<path d="M17.8753 17.3333L23.292 22.75M23.292 17.3333L17.8753 22.75M16.792 3.56499C18.3801 4.20783 19.5003 5.76475 19.5003 7.58333C19.5003 9.40191 18.3801 10.9589 16.792 11.6016M13.0003 16.25H8.66699C6.64791 16.25 5.63837 16.25 4.84204 16.5799C3.78024 17.0197 2.93666 17.8633 2.49685 18.9251C2.16699 19.7214 2.16699 20.7309 2.16699 22.75M14.6253 7.58333C14.6253 9.97657 12.6852 11.9167 10.292 11.9167C7.89876 11.9167 5.95866 9.97657 5.95866 7.58333C5.95866 5.1901 7.89876 3.25 10.292 3.25C12.6852 3.25 14.6253 5.1901 14.6253 7.58333Z" stroke="black" stroke-opacity="0.8" stroke-width="2.16667" stroke-linecap="round" stroke-linejoin="round"/>
</svg>
