<svg width="36" height="36" viewBox="0 0 36 36" fill="none" xmlns="http://www.w3.org/2000/svg">
<path d="M21.7133 18.3937V17.4937H19.2383V18.3937C19.2383 18.9 18.8445 19.2937 18.3945 19.2937H22.6133C22.107 19.2937 21.7133 18.9 21.7133 18.3937Z" fill="#FED0AC"/>
<path d="M17.2695 19.2937H23.6258V22.1625H17.2695V19.2937Z" fill="#FED0AC"/>
<path d="M14.5689 19.2938C13.7814 19.2938 13.3877 19.7438 13.1064 20.025L4.10645 30.2625H5.90645C7.3127 30.2625 7.7627 29.7563 8.15645 29.3063L16.9877 19.2938H14.5689Z" fill="#75A843"/>
<path d="M2.75625 24.6375L5.45625 26.2687C5.9625 26.55 6.58125 26.4375 6.91875 25.9312C7.25625 25.4812 7.0875 24.8062 6.58125 24.525L3.88125 22.8937C3.375 22.6125 2.75625 22.725 2.41875 23.2312C2.1375 23.6812 2.30625 24.3562 2.75625 24.6375Z" fill="#E0A372"/>
<path d="M9.95644 27.1687C9.95644 27.5062 9.67519 27.7875 9.33769 27.7875H4.1627C3.8252 27.7875 3.54395 27.5062 3.54395 27.1687V15.5812C3.54395 15.2437 3.8252 14.9625 4.1627 14.9625H9.28144C9.61894 14.9625 9.90019 15.2437 9.90019 15.5812V27.1687H9.95644Z" fill="#3E4347"/>
<path d="M6.75059 18.1125C7.09231 18.1125 7.36934 17.8355 7.36934 17.4938C7.36934 17.152 7.09231 16.875 6.75059 16.875C6.40886 16.875 6.13184 17.152 6.13184 17.4938C6.13184 17.8355 6.40886 18.1125 6.75059 18.1125Z" fill="#B2C1C0"/>
<path d="M6.75059 17.8313C6.93698 17.8313 7.08809 17.6801 7.08809 17.4938C7.08809 17.3074 6.93698 17.1562 6.75059 17.1562C6.56419 17.1562 6.41309 17.3074 6.41309 17.4938C6.41309 17.6801 6.56419 17.8313 6.75059 17.8313Z" fill="#3E4347"/>
<path d="M7.2 28.9688C7.2 29.7 6.6375 30.2625 5.90625 30.2625H3.54375C2.8125 30.2625 2.25 29.7 2.25 28.9688V24.6375C2.25 23.9062 2.8125 23.3438 3.54375 23.3438H5.9625C6.69375 23.3438 7.25625 23.9062 7.25625 24.6375V28.9688H7.2Z" fill="#FED0AC"/>
<path d="M30.0381 14.0062V16.3688C30.0381 16.8188 30.3756 17.1562 30.8256 17.1562C31.2756 17.1562 31.6131 16.8188 31.6131 16.3688V14.0062C31.6131 13.5562 31.2756 13.2188 30.8256 13.2188C30.3756 13.2188 30.0381 13.5562 30.0381 14.0062Z" fill="#E0A372"/>
<path d="M33.7506 19.1812C33.7506 19.6875 33.3006 20.1375 32.7943 20.1375H30.9943C30.4881 20.1375 30.0381 19.6875 30.0381 19.1812V15.9187C30.0381 15.4125 30.4881 14.9625 30.9943 14.9625H32.7943C33.3006 14.9625 33.7506 15.4125 33.7506 15.9187V19.1812Z" fill="#FED0AC"/>
<path d="M9.16816 16.1438C9.16816 16.2563 9.11191 16.3125 8.99941 16.3125H8.66191C8.54941 16.3125 8.49316 16.2563 8.49316 16.1438V15.8063C8.49316 15.6938 8.54941 15.6375 8.66191 15.6375H8.99941C9.11191 15.6375 9.16816 15.6938 9.16816 15.8063V16.1438Z" fill="white"/>
<path d="M30.5436 20.025C29.9811 21.2625 29.4748 22.3875 29.0248 23.4C28.5748 22.3875 28.0686 21.2625 27.5061 20.025C27.3373 19.6313 26.8311 19.2938 26.0436 19.2938H24.5811C24.5811 19.2938 26.5498 23.7375 27.2248 25.2C27.2248 25.2563 27.7311 26.325 28.7998 26.325H28.9123C29.2498 26.325 30.2623 26.2125 30.7123 25.2L33.0186 20.0813H30.5436V20.025Z" fill="#75A843"/>
<path d="M26.1006 19.2938H22.9506C22.6693 20.475 21.6568 21.375 20.4756 21.375C19.2943 21.375 18.2818 20.475 18.0006 19.2938H14.8506V33.75C14.8506 33.75 16.8193 34.875 20.4756 34.875C24.1318 34.875 26.1006 33.75 26.1006 33.75V19.2938Z" fill="#83BF4F"/>
<path d="M12.6006 9.3375L13.3881 10.8H27.5068L28.1256 9.225C28.1256 3.6 26.7756 1.18125 20.5318 1.125C14.1756 1.06875 12.6006 3.6 12.6006 9.3375Z" fill="#DBB471"/>
<path d="M27.5619 9.28125C27.5057 9.61875 27.4494 9.9 27.3369 10.0688C27.1682 10.4063 26.8307 10.575 26.8307 10.575C26.8307 10.575 26.9432 9.95625 26.8869 9.05625C26.5494 3.825 26.2119 6.35625 20.4744 6.35625C14.7369 6.35625 14.3994 3.825 14.0619 9.05625C14.0057 9.95625 14.1182 10.575 14.1182 10.575C14.1182 10.575 13.7807 10.4063 13.6119 10.0688C13.4994 9.9 13.4432 9.5625 13.3869 9.28125C12.8244 9.1125 12.1494 9.28125 12.1494 10.8563C12.1494 11.8125 12.4869 12.6563 13.7244 12.7125C14.1744 15.975 18.5057 18.1688 20.4744 18.1688C22.4432 18.1688 26.8307 15.975 27.2244 12.7125C28.4057 12.6 28.7994 11.8125 28.7994 10.8563C28.7994 9.225 28.0682 9.1125 27.5619 9.28125Z" fill="#FED0AC"/>
<path d="M17.4934 12.2063C18.1768 12.2063 18.7309 11.6522 18.7309 10.9688C18.7309 10.2853 18.1768 9.73126 17.4934 9.73126C16.8099 9.73126 16.2559 10.2853 16.2559 10.9688C16.2559 11.6522 16.8099 12.2063 17.4934 12.2063Z" fill="#664E27"/>
<path d="M23.3996 12.2063C24.0831 12.2063 24.6371 11.6522 24.6371 10.9688C24.6371 10.2853 24.0831 9.73126 23.3996 9.73126C22.7162 9.73126 22.1621 10.2853 22.1621 10.9688C22.1621 11.6522 22.7162 12.2063 23.3996 12.2063Z" fill="#664E27"/>
<path d="M22.7246 15.0188C22.7246 15.8625 21.5996 16.3125 20.4746 16.3125C19.3496 16.3125 18.2246 15.8625 18.2246 15.0188C18.2246 15.0188 18.2246 14.7938 18.4496 14.7938H22.4996C22.7246 14.7938 22.7246 15.0188 22.7246 15.0188Z" fill="#664E27"/>
</svg>
