<svg width="34" height="37" viewBox="0 0 34 37" fill="none" xmlns="http://www.w3.org/2000/svg">
<g clip-path="url(#clip0_947_968)">
<path d="M0 20.873C0 25.0828 1.58035 29.1202 4.3934 32.0969C7.20644 35.0737 11.0218 36.746 15 36.746C18.9782 36.746 22.7936 35.0737 25.6066 32.0969C28.4196 29.1202 30 25.0828 30 20.873C30 16.6632 28.4196 12.6259 25.6066 9.6491C22.7936 6.67233 18.9782 5 15 5C11.0218 5 7.20644 6.67233 4.3934 9.6491C1.58035 12.6259 0 16.6632 0 20.873Z" fill="#0449FB"/>
<path d="M25.5 17.5496H18.1406C17.3437 17.5496 16.7344 18.1944 16.7344 19.0377V22.6587C16.7344 23.502 17.3437 24.1468 18.1406 24.1468H25.5C26.2969 24.1468 26.9062 23.502 26.9062 22.6587V19.0377C26.9062 18.244 26.2969 17.5496 25.5 17.5496ZM11.8125 17.5496H4.45312C3.65625 17.5496 3.04688 18.1944 3.04688 19.0377V22.6587C3.04688 23.502 3.65625 24.1468 4.45312 24.1468H11.8125C12.6094 24.1468 13.2187 23.502 13.2187 22.6587V19.0377C13.2187 18.244 12.6094 17.5496 11.8125 17.5496Z" fill="#9DE8F7"/>
<path d="M27.8438 19.1865V19.0377C27.8438 17.6488 26.8125 16.5575 25.5 16.5575H18.1406C16.8281 16.5575 15.7969 17.6488 15.7969 19.0377V19.1865H14.2031V19.0377C14.2031 17.6488 13.1719 16.5575 11.8594 16.5575H4.45312C3.14063 16.5575 2.10938 17.6488 2.10938 19.0377V19.1865H0V20.1786H2.10938V22.6587C2.10938 24.0476 3.14063 25.1389 4.45312 25.1389H11.8125C13.125 25.1389 14.1563 24.0476 14.1563 22.6587V20.1786H15.75V22.6587C15.75 24.0476 16.7812 25.1389 18.0937 25.1389H25.4531C26.7656 25.1389 27.7969 24.0476 27.7969 22.6587V20.1786H30V19.1865H27.8438ZM13.2188 22.6587C13.2188 23.502 12.6094 24.1468 11.8125 24.1468H4.45312C3.65625 24.1468 3.04688 23.502 3.04688 22.6587V19.0377C3.04688 18.1944 3.65625 17.5496 4.45312 17.5496H11.8125C12.6094 17.5496 13.2188 18.244 13.2188 19.0377V22.6587ZM26.9063 22.6587C26.9063 23.502 26.2969 24.1468 25.5 24.1468H18.1406C17.3438 24.1468 16.7344 23.502 16.7344 22.6587V19.0377C16.7344 18.1944 17.3438 17.5496 18.1406 17.5496H25.5C26.2969 17.5496 26.9063 18.244 26.9063 19.0377V22.6587Z" fill="black"/>
</g>
<circle cx="23" cy="11" r="11" fill="white"/>
<path d="M20.8362 14.3027L20.8362 14.3027L20.8372 14.3017L26.497 8.53825C26.4972 8.53807 26.4974 8.5379 26.4976 8.53772C26.7136 8.32113 26.7134 7.96342 26.497 7.74707C26.2805 7.53053 25.9224 7.53053 25.7059 7.74707L25.7049 7.74807L20.045 13.5115C20.0449 13.5117 20.0447 13.5119 20.0445 13.512C19.8285 13.7286 19.8287 14.0863 20.045 14.3027C20.2616 14.5192 20.6197 14.5192 20.8362 14.3027Z" fill="#F90D0D" stroke="#F90D0D" stroke-width="0.312847"/>
<path d="M25.7049 14.3017L25.7049 14.3017L25.7059 14.3027C25.9224 14.5192 26.2805 14.5192 26.497 14.3027C26.7134 14.0863 26.7136 13.7286 26.4976 13.512C26.4974 13.5119 26.4972 13.5117 26.497 13.5115L20.8372 7.74807L20.8372 7.74807L20.8362 7.74707C20.6197 7.53053 20.2616 7.53053 20.045 7.74707C19.8287 7.96342 19.8285 8.32112 20.0445 8.53771C20.0447 8.53789 20.0449 8.53807 20.045 8.53825L25.7049 14.3017Z" fill="#F90D0D" stroke="#F90D0D" stroke-width="0.312847"/>
<path d="M14.8436 11.1609C14.8436 15.7423 18.5666 19.4653 23.1479 19.4653C27.7296 19.4653 31.4523 15.729 31.4523 11.1479C31.4523 6.56659 27.7293 2.84358 23.1479 2.84358C18.5663 2.84358 14.8436 6.57986 14.8436 11.1609ZM15.9337 11.1609C15.9337 7.17944 19.1672 3.93365 23.1479 3.93365C27.1287 3.93365 30.3622 7.17944 30.3622 11.1609C30.3622 15.142 27.1291 18.3752 23.1479 18.3752C19.1668 18.3752 15.9337 15.142 15.9337 11.1609Z" fill="#F90D0D" stroke="#F90D0D" stroke-width="0.312847"/>
<defs>
<clipPath id="clip0_947_968">
<rect width="30" height="31.746" fill="white" transform="translate(0 5)"/>
</clipPath>
</defs>
</svg>
