<svg width="30" height="29" viewBox="0 0 30 29" fill="none" xmlns="http://www.w3.org/2000/svg">
<path d="M3.125 5.1875C3.125 4.88156 3.03428 4.58249 2.8643 4.3281C2.69433 4.07372 2.45274 3.87545 2.17009 3.75837C1.88743 3.6413 1.57641 3.61066 1.27635 3.67035C0.976281 3.73003 0.700654 3.87736 0.48432 4.09369C0.267986 4.31003 0.12066 4.58566 0.0609735 4.88572C0.00128695 5.18578 0.0319202 5.49681 0.149 5.77946C0.266079 6.06212 0.464346 6.30371 0.718728 6.47368C0.97311 6.64365 1.27218 6.73438 1.57813 6.73438C1.98824 6.73392 2.38144 6.57081 2.67143 6.28081C2.96143 5.99081 3.12455 5.59762 3.125 5.1875ZM1.57813 5.70313C1.47614 5.70313 1.37645 5.67288 1.29166 5.61623C1.20687 5.55957 1.14078 5.47904 1.10175 5.38482C1.06272 5.2906 1.05251 5.18693 1.07241 5.08691C1.0923 4.98689 1.14141 4.89501 1.21352 4.8229C1.28564 4.75079 1.37751 4.70168 1.47753 4.68178C1.57755 4.66189 1.68123 4.6721 1.77545 4.71113C1.86966 4.75015 1.95019 4.81624 2.00685 4.90103C2.06351 4.98583 2.09375 5.08552 2.09375 5.1875C2.09357 5.3242 2.03919 5.45525 1.94253 5.55191C1.84587 5.64857 1.71482 5.70295 1.57813 5.70313Z" fill="black"/>
<path d="M18.5938 11.375C19.1633 11.375 19.625 10.9133 19.625 10.3438C19.625 9.77421 19.1633 9.3125 18.5938 9.3125C18.0242 9.3125 17.5625 9.77421 17.5625 10.3438C17.5625 10.9133 18.0242 11.375 18.5938 11.375Z" fill="black"/>
<path d="M11.375 11.375C11.9445 11.375 12.4062 10.9133 12.4062 10.3438C12.4062 9.77421 11.9445 9.3125 11.375 9.3125C10.8055 9.3125 10.3438 9.77421 10.3438 10.3438C10.3438 10.9133 10.8055 11.375 11.375 11.375Z" fill="black"/>
<path d="M14.9844 3.125C11.7035 3.12875 8.55802 4.43375 6.23807 6.7537C3.91812 9.07365 2.61313 12.2191 2.60938 15.5V26.9515C2.60998 27.4698 2.81611 27.9666 3.18257 28.3331C3.54902 28.6995 4.04587 28.9056 4.56411 28.9062H12.3061C12.6437 28.9059 12.9732 28.8019 13.2499 28.6083C13.5266 28.4148 13.7372 28.141 13.8534 27.8239C14.2291 27.8579 14.6082 27.875 14.9844 27.875C18.2664 27.875 21.4141 26.5712 23.7348 24.2504C26.0556 21.9297 27.3594 18.7821 27.3594 15.5C27.3594 12.2179 26.0556 9.07032 23.7348 6.74955C21.4141 4.42879 18.2664 3.125 14.9844 3.125ZM12.3061 27.875H6.73438V22.7188H7.25C7.35597 22.7187 7.45935 22.686 7.54607 22.6251C7.6328 22.5642 7.69866 22.4781 7.73469 22.3784C8.16915 21.0663 8.73834 19.8028 9.43316 18.6079C9.5397 18.6338 9.63526 18.6928 9.70601 18.7766C9.77675 18.8603 9.81902 18.9644 9.82668 19.0737L9.31936 22.1181C9.307 22.192 9.3109 22.2677 9.33078 22.3399C9.35066 22.4122 9.38605 22.4792 9.43447 22.5364C9.4829 22.5936 9.5432 22.6395 9.61119 22.671C9.67917 22.7025 9.7532 22.7188 9.82812 22.7188H12.3061C12.4693 22.7189 12.6259 22.7838 12.7413 22.8993C12.8568 23.0147 12.9217 23.1713 12.9219 23.3346V23.75H11.8906C11.7539 23.75 11.6227 23.8043 11.526 23.901C11.4293 23.9977 11.375 24.1289 11.375 24.2656C11.375 24.4024 11.4293 24.5335 11.526 24.6302C11.6227 24.7269 11.7539 24.7812 11.8906 24.7812H12.9219V25.8125H11.8906C11.7539 25.8125 11.6227 25.8668 11.526 25.9635C11.4293 26.0602 11.375 26.1914 11.375 26.3281C11.375 26.4649 11.4293 26.596 11.526 26.6927C11.6227 26.7894 11.7539 26.8438 11.8906 26.8438H12.9219V27.2592C12.9217 27.4225 12.8568 27.579 12.7413 27.6945C12.6259 27.8099 12.4693 27.8748 12.3061 27.875ZM14.9844 26.8438C14.6412 26.8438 14.2958 26.8283 13.9531 26.7973V23.3346C13.9526 22.8979 13.7789 22.4793 13.4701 22.1705C13.1614 21.8617 12.7427 21.688 12.3061 21.6875H10.4369L10.8523 19.1942C10.8571 19.1662 10.8594 19.1378 10.8594 19.1094C10.8589 18.6993 10.6958 18.3061 10.4058 18.0161C10.1158 17.7261 9.72262 17.563 9.3125 17.5625C8.99555 17.5625 8.41268 17.5625 6.88948 21.6875H3.64062V16.5312H5.1875C5.32425 16.5312 5.4554 16.4769 5.5521 16.3802C5.6488 16.2835 5.70312 16.1524 5.70312 16.0156C5.70312 15.8789 5.6488 15.7477 5.5521 15.651C5.4554 15.5543 5.32425 15.5 5.1875 15.5H3.64062C3.64062 13.2564 4.30592 11.0632 5.55239 9.19775C6.79886 7.33228 8.57051 5.87832 10.6433 5.01974C12.7161 4.16116 14.997 3.93652 17.1974 4.37422C19.3979 4.81192 21.4192 5.89231 23.0056 7.47876C24.5921 9.06521 25.6725 11.0865 26.1102 13.2869C26.5479 15.4874 26.3232 17.7683 25.4646 19.8411C24.6061 21.9139 23.1521 23.6855 21.2866 24.932C19.4212 26.1785 17.228 26.8438 14.9844 26.8438Z" fill="black"/>
<path d="M27.2045 26.5633C27.1078 26.4666 26.9767 26.4123 26.8399 26.4123C26.7032 26.4123 26.5721 26.4666 26.4754 26.5633L26.08 26.9587L25.6845 26.5633C25.5873 26.4694 25.457 26.4174 25.3219 26.4186C25.1867 26.4198 25.0573 26.474 24.9617 26.5696C24.8661 26.6652 24.8119 26.7945 24.8107 26.9297C24.8096 27.0649 24.8615 27.1952 24.9555 27.2924L25.3509 27.6879L24.9555 28.0835C24.9064 28.1311 24.8673 28.188 24.8404 28.2508C24.8135 28.3137 24.7994 28.3813 24.7988 28.4497C24.7983 28.518 24.8114 28.5858 24.8373 28.6491C24.8632 28.7124 24.9015 28.7698 24.9498 28.8182C24.9982 28.8665 25.0557 28.9048 25.1189 28.9307C25.1822 28.9566 25.25 28.9697 25.3184 28.9692C25.3867 28.9687 25.4543 28.9546 25.5172 28.9277C25.58 28.9008 25.6369 28.8617 25.6845 28.8126L26.08 28.4171L26.4754 28.8126C26.523 28.8615 26.5799 28.9004 26.6427 28.9272C26.7055 28.9539 26.773 28.9679 26.8413 28.9683C26.9095 28.9687 26.9772 28.9556 27.0404 28.9297C27.1035 28.9038 27.1609 28.8655 27.2092 28.8173C27.2574 28.769 27.2956 28.7116 27.3216 28.6485C27.3475 28.5853 27.3606 28.5177 27.3602 28.4494C27.3597 28.3811 27.3458 28.3136 27.319 28.2508C27.2923 28.188 27.2534 28.1311 27.2045 28.0835L26.809 27.6879L27.2045 27.2924C27.3012 27.1957 27.3554 27.0646 27.3554 26.9278C27.3554 26.7911 27.3012 26.66 27.2045 26.5633Z" fill="black"/>
<path d="M28.9062 22.7188C29.191 22.7188 29.4219 22.4879 29.4219 22.2031C29.4219 21.9184 29.191 21.6875 28.9062 21.6875C28.6215 21.6875 28.3906 21.9184 28.3906 22.2031C28.3906 22.4879 28.6215 22.7188 28.9062 22.7188Z" fill="black"/>
<path d="M19.2455 13.9531H10.7236C10.4631 13.9535 10.2107 14.0438 10.0091 14.2088C9.80748 14.3738 9.66908 14.6034 9.61729 14.8588C9.5655 15.1141 9.60349 15.3795 9.72485 15.61C9.8462 15.8405 10.0435 16.0221 10.2833 16.1239C13.2967 17.3543 16.6724 17.3543 19.6859 16.1239C19.9257 16.0221 20.123 15.8405 20.2443 15.61C20.3657 15.3795 20.4037 15.1141 20.3519 14.8588C20.3001 14.6034 20.1617 14.3738 19.9601 14.2088C19.7585 14.0438 19.5061 13.9535 19.2455 13.9531Z" fill="black"/>
<path d="M25.8125 2.09375C25.9493 2.09375 26.0804 2.03943 26.1771 1.94273C26.2738 1.84603 26.3281 1.71488 26.3281 1.57812V1.0625C26.3281 0.925748 26.2738 0.794596 26.1771 0.697898C26.0804 0.6012 25.9493 0.546875 25.8125 0.546875C25.6757 0.546875 25.5446 0.6012 25.4479 0.697898C25.3512 0.794596 25.2969 0.925748 25.2969 1.0625V1.57812C25.2969 1.71488 25.3512 1.84603 25.4479 1.94273C25.5446 2.03943 25.6757 2.09375 25.8125 2.09375Z" fill="black"/>
<path d="M25.8125 3.125C25.6757 3.125 25.5446 3.17932 25.4479 3.27602C25.3512 3.37272 25.2969 3.50387 25.2969 3.64062V4.15625C25.2969 4.293 25.3512 4.42415 25.4479 4.52085C25.5446 4.61755 25.6757 4.67188 25.8125 4.67188C25.9493 4.67188 26.0804 4.61755 26.1771 4.52085C26.2738 4.42415 26.3281 4.293 26.3281 4.15625V3.64062C26.3281 3.50387 26.2738 3.37272 26.1771 3.27602C26.0804 3.17932 25.9493 3.125 25.8125 3.125Z" fill="black"/>
<path d="M24.2656 3.125H24.7812C24.918 3.125 25.0492 3.07068 25.1459 2.97398C25.2426 2.87728 25.2969 2.74613 25.2969 2.60938C25.2969 2.47262 25.2426 2.34147 25.1459 2.24477C25.0492 2.14807 24.918 2.09375 24.7812 2.09375H24.2656C24.1289 2.09375 23.9977 2.14807 23.901 2.24477C23.8043 2.34147 23.75 2.47262 23.75 2.60938C23.75 2.74613 23.8043 2.87728 23.901 2.97398C23.9977 3.07068 24.1289 3.125 24.2656 3.125Z" fill="black"/>
<path d="M27.3594 2.09375H26.8438C26.707 2.09375 26.5758 2.14807 26.4791 2.24477C26.3824 2.34147 26.3281 2.47262 26.3281 2.60938C26.3281 2.74613 26.3824 2.87728 26.4791 2.97398C26.5758 3.07068 26.707 3.125 26.8438 3.125H27.3594C27.4961 3.125 27.6273 3.07068 27.724 2.97398C27.8207 2.87728 27.875 2.74613 27.875 2.60938C27.875 2.47262 27.8207 2.34147 27.724 2.24477C27.6273 2.14807 27.4961 2.09375 27.3594 2.09375Z" fill="black"/>
</svg>
