<svg width="23" height="23" viewBox="0 0 23 23" fill="none" xmlns="http://www.w3.org/2000/svg">
<g clip-path="url(#clip0_552_513)">
<path d="M7.24608 22.3148C6.9311 22.3148 6.61847 22.2156 6.3527 22.0212L0.728285 17.9044C0.334331 17.616 0.108261 17.1706 0.108261 16.6824C0.108261 16.1941 0.334243 15.7486 0.728198 15.4602L6.35274 11.3434C6.81556 11.0047 7.42085 10.9554 7.93239 11.2149C8.44394 11.4744 8.76166 11.9919 8.76166 12.5655V13.0282H19.5932C21.0344 13.0282 22.207 14.2008 22.207 15.6421V17.7226C22.207 19.1639 21.0344 20.3365 19.5932 20.3365H18.0749C17.7111 20.3365 17.4162 20.0415 17.4162 19.6777C17.4162 19.314 17.7111 19.0189 18.0749 19.0189H19.5932C20.3079 19.0189 20.8895 18.4374 20.8895 17.7226V15.6421C20.8895 14.9273 20.308 14.3457 19.5932 14.3457H8.10285C7.73901 14.3457 7.44408 14.0507 7.44408 13.687V12.5655C7.44408 12.4656 7.38546 12.4148 7.33625 12.3899C7.28705 12.365 7.21147 12.3476 7.13093 12.4066L1.50643 16.5234C1.43635 16.5747 1.42584 16.645 1.42584 16.6823C1.42584 16.7196 1.43631 16.7898 1.50643 16.8411L7.13097 20.9579C7.21169 21.017 7.28718 20.9997 7.3363 20.9747C7.3855 20.9498 7.44408 20.8991 7.44408 20.7991V19.6777C7.44408 19.3139 7.73901 19.0189 8.10285 19.0189H15.1981C15.562 19.0189 15.8569 19.3139 15.8569 19.6777C15.8569 20.0414 15.562 20.3364 15.1981 20.3364H8.76166V20.7991C8.76166 21.3727 8.44385 21.8903 7.93239 22.1498C7.71447 22.2602 7.47969 22.3148 7.24608 22.3148Z" fill="#19CD15"/>
<path d="M15.5732 10.44L21.1977 6.32321C21.6647 5.98138 21.6647 5.28413 21.1977 4.94226L15.5732 0.825413C15.0079 0.411628 14.2122 0.815345 14.2122 1.51587V2.63733H2.72196C1.64221 2.63733 0.766876 3.51266 0.766876 4.59241V6.67297C0.766876 7.75272 1.64221 8.62806 2.72196 8.62806H14.2122V9.74952C14.2121 10.4501 15.008 10.8538 15.5732 10.44Z" fill="#19CD15"/>
<path d="M15.0723 11.2657C14.2355 11.2656 13.5546 10.5855 13.5546 9.74968V9.28699H2.72315C1.28188 9.28699 0.109299 8.11441 0.109299 6.67313V4.59257C0.109299 3.1513 1.28188 1.97872 2.72315 1.97872H13.5547V1.51599C13.5546 0.68009 14.2354 7.62939e-06 15.0723 7.62939e-06C15.3927 7.62939e-06 15.7009 0.101645 15.9636 0.293937L21.588 4.41074C21.982 4.69909 22.208 5.14452 22.208 5.6327C22.208 6.12101 21.982 6.56648 21.5881 6.85488L15.9635 10.9717C15.7008 11.1641 15.3927 11.2657 15.0723 11.2657ZM2.72315 3.29626C2.00838 3.29626 1.42684 3.87775 1.42684 4.59257V6.67313C1.42684 7.38791 2.00833 7.96945 2.72315 7.96945H14.2134C14.5773 7.96945 14.8722 8.26447 14.8722 8.62822V9.74968C14.8722 9.89956 15.007 9.94811 15.0724 9.94811C15.1121 9.94811 15.149 9.93521 15.1854 9.90858L20.8098 5.79178C20.8799 5.74048 20.8904 5.67018 20.8904 5.63287C20.8904 5.59557 20.8799 5.52535 20.8098 5.47405L15.1853 1.35717C15.1489 1.33054 15.1119 1.31759 15.0722 1.31759C15.0069 1.31759 14.8721 1.36606 14.8721 1.51603V2.63749C14.8721 3.00128 14.5772 3.29626 14.2133 3.29626H2.72315Z" fill="#19CD15"/>
</g>
<defs>
<clipPath id="clip0_552_513">
<rect width="22.3149" height="22.3149" fill="white"/>
</clipPath>
</defs>
</svg>
