<svg width="28" height="27" viewBox="0 0 28 27" fill="none" xmlns="http://www.w3.org/2000/svg">
<path d="M14.0761 27C21.3187 27 27.19 21.0901 27.19 13.7998C27.19 6.50954 21.3187 0.599609 14.0761 0.599609C6.83355 0.599609 0.96228 6.50954 0.96228 13.7998C0.96228 21.0901 6.83355 27 14.0761 27Z" fill="#EFCB6C"/>
<path d="M13.0771 17.4481C12.4725 17.3704 12.0218 16.8048 12.118 16.2004L13.0369 10.4319C13.133 9.8275 13.6714 9.38887 14.2762 9.46653C14.8808 9.54419 15.3106 10.1053 15.2349 10.714L14.3162 16.4827C14.2201 17.0889 13.6818 17.5257 13.0771 17.4481Z" fill="#F2BF96"/>
<path d="M15.4707 16.8684C14.8615 16.8887 14.3273 16.4024 14.3267 15.7904L14.322 9.94821C14.3214 9.33617 14.7839 8.81679 15.393 8.79666C16.0022 8.77652 16.5154 9.26139 16.5368 9.87486L16.5417 15.7173C16.5423 16.3307 16.08 16.8483 15.4707 16.8684Z" fill="#F2BF96"/>
<path d="M22.5486 9.67969L15.9562 6.82434L11.8287 10.8674L11.742 14.6241L20.9288 13.166L22.5486 9.67969Z" fill="#F2C09E"/>
<path d="M17.9599 16.0842C17.3791 16.2701 16.7337 15.9482 16.5681 15.3593L14.9877 9.73781C14.822 9.14899 15.127 8.52277 15.708 8.33684C16.2889 8.15091 16.9137 8.47737 17.0996 9.06188L18.6802 14.6834C18.8464 15.2739 18.541 15.8982 17.9599 16.0842Z" fill="#F2C09E"/>
<path d="M22.2863 8.36644C24.9513 9.6655 25.957 10.8298 26.903 11.0398C27.1696 12.1395 27.3263 13.9543 27.0495 15.7392C26.1441 15.0715 23.2768 15.1627 22.4488 15.3341C20.1716 15.8056 18.3699 14.3208 18.2644 13.4489C18.1589 12.5769 20.3685 9.66037 22.2863 8.36644Z" fill="#FFDCC5"/>
<path d="M23.7007 9.98602C23.5607 10.5833 22.918 11.0751 22.3679 10.8154L15.6532 7.64861C15.1031 7.38912 14.6892 6.90405 14.829 6.30681C14.9691 5.70957 15.5683 5.33791 16.1618 5.47761L22.8765 8.64463C23.4289 8.90494 23.8407 9.38898 23.7007 9.98602Z" fill="#FFDCC5"/>
<path d="M11.2784 10.3784C10.9063 9.89226 11.0071 9.19825 11.4798 8.81406L15.156 5.74483C15.6236 5.35427 16.3382 5.46152 16.7101 5.94761C17.0819 6.43371 16.9907 7.13614 16.5084 7.51191L12.8324 10.5813C12.3632 10.9729 11.6505 10.8647 11.2784 10.3784Z" fill="#FFDCC5"/>
<path d="M10.2487 16.595C9.65576 16.4524 9.26816 15.8414 9.42839 15.2509L10.9576 9.61501C11.1178 9.02455 11.7001 8.64672 12.2928 8.78931C12.8857 8.93189 13.2533 9.53612 13.1129 10.1334L11.5838 15.7695C11.4231 16.3616 10.8416 16.7376 10.2487 16.595Z" fill="#FFDCC5"/>
<path d="M14.9429 8.82015C15.9432 9.12175 20.0059 10.457 18.1724 12.3697C16.3387 14.2825 22.9044 12.3785 22.9044 12.3785L21.1077 8.41479C21.1077 8.41479 15.5021 5.46329 14.9429 8.82015Z" fill="#FFDCC5"/>
<path d="M19.1278 12.721H6.26906V21.1445H19.1278V12.721Z" fill="#B1C95D"/>
<path d="M13.8212 13.9538H7.28979V16.0083H13.8212V13.9538Z" fill="#E7FFE1"/>
<path d="M17.6493 16.0207C18.2149 16.0207 18.6733 15.5593 18.6733 14.99C18.6733 14.4207 18.2149 13.9592 17.6493 13.9592C17.0838 13.9592 16.6253 14.4207 16.6253 14.99C16.6253 15.5593 17.0838 16.0207 17.6493 16.0207Z" fill="#E7FFE1"/>
<path d="M16.5765 16.0207C17.142 16.0207 17.6005 15.5593 17.6005 14.99C17.6005 14.4207 17.142 13.9592 16.5765 13.9592C16.0109 13.9592 15.5525 14.4207 15.5525 14.99C15.5525 15.5593 16.0109 16.0207 16.5765 16.0207Z" fill="#E7FFE1"/>
<path d="M19.1279 18.6798H6.26921V20.1179H19.1279V18.6798Z" fill="#6D8467"/>
<path d="M20.1065 13.0793C20.319 13.7674 19.9455 14.5542 19.2505 14.7188L12.9699 16.2058C12.2749 16.3704 11.5536 16.032 11.3411 15.344C11.1287 14.6561 11.5142 13.9202 12.1974 13.7047L18.4779 12.2178C19.175 12.0525 19.894 12.3912 20.1065 13.0793Z" fill="#FFDCC5"/>
<path d="M23.9027 12.0141C24.1151 12.7021 23.7416 13.489 23.0466 13.6536L16.7661 15.1406C16.0711 15.3052 15.3498 14.9668 15.1373 14.2787C14.9248 13.5907 15.3104 12.855 15.9935 12.6395L22.2741 11.1526C22.9711 10.9872 23.6904 11.326 23.9027 12.0141Z" fill="#FFDCC5"/>
</svg>
