<svg width="29" height="29" viewBox="0 0 29 29" fill="none" xmlns="http://www.w3.org/2000/svg">
<g clip-path="url(#clip0_552_509)">
<path d="M7.25 26.2812C6.04824 26.2812 4.8957 25.8039 4.04592 24.9541C3.19615 24.1043 2.71875 22.9518 2.71875 21.75L2.71875 10.7022C2.71875 9.86674 3.05064 9.0655 3.6414 8.47473C4.23216 7.88397 5.03341 7.55208 5.86888 7.55208H7.55208V6.04167C7.55336 5.16077 7.90386 4.31631 8.52676 3.69342C9.14965 3.07053 9.9941 2.72003 10.875 2.71875H22.9583C23.8393 2.71971 24.684 3.07011 25.3069 3.69307C25.9299 4.31603 26.2803 5.16067 26.2812 6.04167V18.125C26.2806 19.0061 25.9303 19.8509 25.3073 20.4739C24.6843 21.097 23.8394 21.4473 22.9583 21.4479H21.4479V23.1311C21.4479 23.5449 21.3664 23.9546 21.208 24.3369C21.0496 24.7192 20.8175 25.0665 20.5248 25.359C20.2322 25.6516 19.8848 25.8836 19.5025 26.0418C19.1201 26.2 18.7104 26.2814 18.2966 26.2812H7.25ZM4.53125 10.7022V21.75C4.53125 22.4711 4.81769 23.1626 5.32755 23.6724C5.83742 24.1823 6.52894 24.4688 7.25 24.4688H18.2966C18.6515 24.4688 18.9918 24.3279 19.2429 24.077C19.4939 23.8262 19.6351 23.486 19.6354 23.1311V21.4479H10.875C9.994 21.447 9.14936 21.0966 8.5264 20.4736C7.90344 19.8506 7.55304 19.006 7.55208 18.125V9.36458H5.86888C5.51412 9.36458 5.17388 9.50551 4.92303 9.75636C4.67218 10.0072 4.53125 10.3474 4.53125 10.7022ZM9.36458 6.04167V18.125C9.36522 18.5254 9.52456 18.9092 9.80768 19.1923C10.0908 19.4754 10.4746 19.6348 10.875 19.6354H22.9583C23.3588 19.6351 23.7428 19.4759 24.026 19.1927C24.3092 18.9095 24.4684 18.5255 24.4688 18.125V6.04167C24.4684 5.64118 24.3092 5.25718 24.026 4.97399C23.7428 4.69081 23.3588 4.53157 22.9583 4.53125H10.875C10.4746 4.53189 10.0908 4.69123 9.80768 4.97435C9.52456 5.25747 9.36522 5.64128 9.36458 6.04167ZM13.8958 15.4062C13.6555 15.4062 13.425 15.3108 13.255 15.1408C13.0851 14.9709 12.9896 14.7404 12.9896 14.5C12.9896 14.2596 13.0851 14.0291 13.255 13.8592C13.425 13.6892 13.6555 13.5938 13.8958 13.5938H19.9375C20.1779 13.5938 20.4084 13.6892 20.5783 13.8592C20.7483 14.0291 20.8438 14.2596 20.8438 14.5C20.8438 14.7404 20.7483 14.9709 20.5783 15.1408C20.4084 15.3108 20.1779 15.4062 19.9375 15.4062H13.8958Z" fill="black" fill-opacity="0.8"/>
<path opacity="0.5" d="M19.9375 8.76041H13.8958C13.6555 8.76041 13.425 8.85589 13.255 9.02585C13.0851 9.1958 12.9896 9.42631 12.9896 9.66666C12.9896 9.90702 13.0851 10.1375 13.255 10.3075C13.425 10.4774 13.6555 10.5729 13.8958 10.5729L19.9375 10.5729C20.1779 10.5729 20.4084 10.4774 20.5783 10.3075C20.7483 10.1375 20.8438 9.90702 20.8438 9.66666C20.8438 9.42631 20.7483 9.1958 20.5783 9.02585C20.4084 8.85589 20.1779 8.76041 19.9375 8.76041Z" fill="black" fill-opacity="0.8"/>
</g>
<defs>
<clipPath id="clip0_552_509">
<rect width="29" height="29" fill="white"/>
</clipPath>
</defs>
</svg>
