<svg width="25" height="26" viewBox="0 0 25 26" fill="none" xmlns="http://www.w3.org/2000/svg">
<path d="M22.9168 13.0007C22.9168 17.9111 22.9168 20.3664 21.3913 21.8918C19.8659 23.4173 17.4106 23.4173 12.5002 23.4173C7.58969 23.4173 5.13446 23.4173 3.60899 21.8918C2.0835 20.3664 2.0835 17.9111 2.0835 13.0007C2.0835 8.09018 2.0835 5.63495 3.60899 4.10947C5.13446 2.58398 7.58969 2.58398 12.5002 2.58398C17.4106 2.58398 19.8659 2.58398 21.3913 4.10947C22.4057 5.12379 22.7456 6.54914 22.8594 8.83398" stroke="black" stroke-width="1.5625" stroke-linecap="round"/>
<path d="M18.75 9.35482H14.5833M18.75 15.6048H14.5833M18.75 18.7298H14.5833M10.4167 9.35483H8.33333M8.33333 9.35483H6.25M8.33333 9.35483V7.27148M8.33333 9.35483V11.4382M9.89583 15.6048L8.33334 17.1673M8.33334 17.1673L6.77084 18.7298M8.33334 17.1673L6.77083 15.6048M8.33334 17.1673L9.89582 18.7298" stroke="black" stroke-width="1.5625" stroke-linecap="round"/>
</svg>
