<?xml version="1.0" encoding="utf-8"?><!-- Uploaded to: SVG Repo, www.svgrepo.com, Generator: SVG Repo Mixer Tools -->
<svg fill="#000000" width="800px" height="800px" viewBox="0 0 1024 1024" xmlns="http://www.w3.org/2000/svg"><path d="M300.426 627.184h-85.381c-16.968 0-30.72-13.754-30.72-30.72V71.684c0-16.972 13.748-30.72 30.72-30.72h593.92c16.966 0 30.72 13.752 30.72 30.72v524.78c0 16.962-13.758 30.72-30.72 30.72H700.636c-11.311 0-20.48 9.169-20.48 20.48s9.169 20.48 20.48 20.48h108.329c39.583 0 71.68-32.097 71.68-71.68V71.684c0-39.591-32.094-71.68-71.68-71.68h-593.92c-39.594 0-71.68 32.086-71.68 71.68v524.78c0 39.586 32.089 71.68 71.68 71.68h85.381c11.311 0 20.48-9.169 20.48-20.48s-9.169-20.48-20.48-20.48z"/><path d="M295.58 354.445h432.845c11.311 0 20.48-9.169 20.48-20.48s-9.169-20.48-20.48-20.48H295.58c-11.311 0-20.48 9.169-20.48 20.48s9.169 20.48 20.48 20.48z"/><path d="M696.814 510.712c-11.311 0-20.48 9.169-20.48 20.48s9.169 20.48 20.48 20.48h31.785c31.693 0 49.84-27.858 37.045-56.848L691.014 325.8c-4.569-10.347-16.66-15.031-27.007-10.463s-15.031 16.66-10.463 27.007l74.341 168.368h-31.07zM370.456 342.344c4.569-10.347-.116-22.439-10.463-27.007s-22.439.116-27.007 10.463l-74.629 169.021c-12.796 28.993 5.351 56.851 37.044 56.851h277.545c11.311 0 20.48-9.169 20.48-20.48s-9.169-20.48-20.48-20.48h-276.83l74.341-168.368z"/><path d="M548.192 348.003c0 20.325-16.476 36.803-36.803 36.803-20.321 0-36.803-16.482-36.803-36.803 0-11.311-9.169-20.48-20.48-20.48s-20.48 9.169-20.48 20.48c0 42.942 34.82 77.763 77.763 77.763 42.949 0 77.763-34.817 77.763-77.763 0-11.311-9.169-20.48-20.48-20.48s-20.48 9.169-20.48 20.48zm19.477 204.035c11.311 0 20.48-9.169 20.48-20.48s-9.169-20.48-20.48-20.48H300.886c-11.311 0-20.48 9.169-20.48 20.48v106.26a61.445 61.445 0 006.638 27.787l61.112 120.504a40.922 40.922 0 014.431 18.528v197.253c0 11.311 9.169 20.48 20.48 20.48s20.48-9.169 20.48-20.48V804.637a81.856 81.856 0 00-8.865-37.063l-61.108-120.496a20.48 20.48 0 01-2.209-9.261v-85.78h246.303zm40.918 449.853V822.64a51.175 51.175 0 0116.723-37.846l46.466-42.328a81.887 81.887 0 0026.759-60.565V576.542c0-11.311-9.169-20.48-20.48-20.48s-20.48 9.169-20.48 20.48v105.359a40.934 40.934 0 01-13.377 30.28l-46.464 42.327a92.126 92.126 0 00-30.107 68.132v179.251c0 11.311 9.169 20.48 20.48 20.48s20.48-9.169 20.48-20.48z"/><path d="M595.712 583.928v-78.162c0-16.968 13.754-30.72 30.72-30.72 17.396 0 31.15 13.752 31.15 30.72v98.642c0 11.311 9.169 20.48 20.48 20.48s20.48-9.169 20.48-20.48v-98.642c0-39.591-32.094-71.68-71.68-71.68-40.016 0-72.11 32.089-72.11 71.68v78.162c0 11.311 9.169 20.48 20.48 20.48s20.48-9.169 20.48-20.48z"/></svg>