<svg width="25" height="25" viewBox="0 0 25 25" fill="none" xmlns="http://www.w3.org/2000/svg">
<path d="M19.4446 11.4583C21.4078 11.168 22.9168 9.42265 22.9168 7.31288C22.9168 4.99998 21.1032 3.125 18.8659 3.125H6.13442C3.89716 3.125 2.0835 4.99998 2.0835 7.31288C2.0835 9.42265 3.59259 11.168 5.55571 11.4583" stroke="black" stroke-width="1.5625"/>
<path d="M12.4998 6.25V13.5417M12.4998 13.5417L14.5832 11.1111M12.4998 13.5417L10.4165 11.1111" stroke="black" stroke-width="1.5625" stroke-linecap="round" stroke-linejoin="round"/>
<path d="M5.2085 10.4167C5.2085 8.45248 5.2085 7.47039 5.81869 6.8602C6.42888 6.25 7.41098 6.25 9.37516 6.25H15.6252C17.5893 6.25 18.5714 6.25 19.1816 6.8602C19.7918 7.47039 19.7918 8.45248 19.7918 10.4167V16.6667C19.7918 18.6308 19.7918 19.6129 19.1816 20.2231C18.5714 20.8333 17.5893 20.8333 15.6252 20.8333H9.37516C7.41098 20.8333 6.42888 20.8333 5.81869 20.2231C5.2085 19.6129 5.2085 18.6308 5.2085 16.6667V10.4167Z" stroke="black" stroke-width="1.5625"/>
<path d="M5.2085 17.709H19.7918" stroke="black" stroke-width="1.5625" stroke-linecap="round" stroke-linejoin="round"/>
</svg>
