<svg width="25" height="25" viewBox="0 0 25 25" fill="none" xmlns="http://www.w3.org/2000/svg">
<path d="M22.9167 12.7124V14.2969C22.9167 18.3602 22.9167 20.392 21.6963 21.6543C20.4759 22.9167 18.5117 22.9167 14.5833 22.9167H10.4167C6.4883 22.9167 4.52412 22.9167 3.30373 21.6543C2.08334 20.392 2.08334 18.3602 2.08334 14.2969V12.7124C2.08334 10.3286 2.08334 9.13676 2.62418 8.1487C3.16501 7.16065 4.15308 6.54742 6.12921 5.32098L8.21254 4.028C10.3015 2.73156 11.3459 2.08334 12.5 2.08334C13.6541 2.08334 14.6986 2.73156 16.7875 4.028L18.8708 5.32097C20.847 6.54742 21.835 7.16065 22.3758 8.1487" stroke="black" stroke-opacity="0.8" stroke-width="1.5625" stroke-linecap="round"/>
<path d="M15.625 18.75H9.375" stroke="black" stroke-opacity="0.8" stroke-width="1.5625" stroke-linecap="round"/>
</svg>
