<svg width="25" height="26" viewBox="0 0 25 26" fill="none" xmlns="http://www.w3.org/2000/svg">
<path d="M19.7915 8.83398C21.5174 8.83398 22.9165 7.43487 22.9165 5.70898C22.9165 3.98309 21.5174 2.58398 19.7915 2.58398C18.0656 2.58398 16.6665 3.98309 16.6665 5.70898C16.6665 7.43487 18.0656 8.83398 19.7915 8.83398Z" stroke="black" stroke-width="1.8125"/>
<path d="M7.2915 15.084H16.6665" stroke="black" stroke-width="1.8125" stroke-linecap="round"/>
<path d="M7.2915 18.7285H13.5415" stroke="black" stroke-width="1.8125" stroke-linecap="round"/>
<path d="M2.0835 13.0007C2.0835 17.9111 2.0835 20.3664 3.60899 21.8918C5.13446 23.4173 7.58969 23.4173 12.5002 23.4173C17.4106 23.4173 19.8659 23.4173 21.3913 21.8918C22.9168 20.3664 22.9168 17.9111 22.9168 13.0007V11.4382M14.0627 2.58398H12.5002C7.58969 2.58398 5.13446 2.58398 3.60899 4.10947C2.59467 5.12379 2.25479 6.54914 2.14089 8.83398" stroke="black" stroke-width="1.5" stroke-linecap="round"/>
</svg>
