<svg width="107" height="109" viewBox="0 0 107 109" fill="none" xmlns="http://www.w3.org/2000/svg">
<path d="M42.125 77.4583C45.3494 75.0684 49.2708 73.6667 53.5 73.6667C57.7292 73.6667 61.6506 75.0684 64.875 77.4583" stroke="#0449FB" stroke-width="5.6875" stroke-linecap="round"/>
<path d="M64.8749 58.5C66.969 58.5 68.6666 55.9536 68.6666 52.8125C68.6666 49.6714 66.969 47.125 64.8749 47.125C62.7808 47.125 61.0833 49.6714 61.0833 52.8125C61.0833 55.9536 62.7808 58.5 64.8749 58.5Z" fill="#0449FB"/>
<path d="M42.1249 58.5C44.219 58.5 45.9166 55.9536 45.9166 52.8125C45.9166 49.6714 44.219 47.125 42.1249 47.125C40.0308 47.125 38.3333 49.6714 38.3333 52.8125C38.3333 55.9536 40.0308 58.5 42.1249 58.5Z" fill="#0449FB"/>
<path d="M90.6357 53.9208V50.0895C90.6357 29.0532 74.2052 12 53.9375 12C33.6695 12 17.2391 29.0532 17.2391 50.0895V53.9208C17.2391 58.5189 15.9279 63.0135 13.4705 66.8393L7.44884 76.2141C1.94859 84.7771 6.14759 96.4166 15.7138 99.1245C40.7393 106.208 67.1359 106.208 92.1609 99.1245C101.728 96.4166 105.926 84.7771 100.426 76.2141L94.4044 66.8393C91.9472 63.0135 90.6357 58.5189 90.6357 53.9208Z" stroke="#0449FB" stroke-opacity="0.8" stroke-width="8.15625"/>
<circle cx="78.5" cy="16.5" r="16.5" fill="#F9A90D"/>
</svg>
