<svg width="25" height="25" viewBox="0 0 25 25" fill="none" xmlns="http://www.w3.org/2000/svg">
<path d="M19.5303 10.1141V9.38016C19.5303 5.35022 16.3827 2.08331 12.5 2.08331C8.61725 2.08331 5.46966 5.35022 5.46966 9.38016V10.1141C5.46966 10.995 5.21846 11.856 4.74771 12.5889L3.59413 14.3849C2.54044 16.0253 3.34484 18.2551 5.17746 18.7738C9.9716 20.1309 15.0284 20.1309 19.8225 18.7738C21.6552 18.2551 22.4596 16.0253 21.4058 14.3849L20.2523 12.5889C19.7816 11.856 19.5303 10.995 19.5303 10.1141Z" stroke="black" stroke-opacity="0.8" stroke-width="1.5625"/>
<path d="M7.8125 19.7917C8.49482 21.6123 10.3359 22.9167 12.5 22.9167C14.6641 22.9167 16.5052 21.6123 17.1875 19.7917" stroke="black" stroke-opacity="0.8" stroke-width="1.5625" stroke-linecap="round"/>
</svg>
