<svg width="26" height="27" viewBox="0 0 26 27" fill="none" xmlns="http://www.w3.org/2000/svg">
<path d="M13 10.9583C15.3932 10.9583 17.3333 9.01822 17.3333 6.62499C17.3333 4.23176 15.3932 2.29166 13 2.29166C10.6068 2.29166 8.66666 4.23176 8.66666 6.62499C8.66666 9.01822 10.6068 10.9583 13 10.9583Z" stroke="black" stroke-opacity="0.8" stroke-width="1.625"/>
<path d="M21.6639 19.625C21.6666 19.4471 21.6666 19.2664 21.6666 19.0833C21.6666 16.3909 17.7865 14.2083 13 14.2083C8.21351 14.2083 4.33331 16.3909 4.33331 19.0833C4.33331 21.7758 4.33331 23.9583 13 23.9583C15.4169 23.9583 17.1598 23.7886 18.4166 23.4854" stroke="black" stroke-opacity="0.8" stroke-width="1.625" stroke-linecap="round"/>
</svg>
