<svg width="91" height="91" viewBox="0 0 91 91" fill="none" xmlns="http://www.w3.org/2000/svg">
<path d="M34.125 64.4583C37.3494 62.0684 41.2708 60.6667 45.5 60.6667C49.7292 60.6667 53.6506 62.0684 56.875 64.4583" stroke="#0449FB" stroke-width="5.6875" stroke-linecap="round"/>
<path d="M56.875 45.5C58.9691 45.5 60.6667 42.9536 60.6667 39.8125C60.6667 36.6714 58.9691 34.125 56.875 34.125C54.7809 34.125 53.0833 36.6714 53.0833 39.8125C53.0833 42.9536 54.7809 45.5 56.875 45.5Z" fill="#0449FB"/>
<path d="M34.125 45.5C36.2191 45.5 37.9167 42.9536 37.9167 39.8125C37.9167 36.6714 36.2191 34.125 34.125 34.125C32.0309 34.125 30.3333 36.6714 30.3333 39.8125C30.3333 42.9536 32.0309 45.5 34.125 45.5Z" fill="#0449FB"/>
<path d="M26.5417 12.6559C32.1187 9.42976 38.5939 7.58333 45.5 7.58333C66.4406 7.58333 83.4167 24.5592 83.4167 45.5C83.4167 66.4406 66.4406 83.4167 45.5 83.4167C24.5592 83.4167 7.58334 66.4406 7.58334 45.5C7.58334 38.5939 9.42977 32.1187 12.6559 26.5417" stroke="#0449FB" stroke-width="5.6875" stroke-linecap="round"/>
</svg>
