<svg width="100" height="100" viewBox="0 0 100 100" fill="none" xmlns="http://www.w3.org/2000/svg">
<path d="M57 44H51H45C41.7 44 39 46.7 39 50V59C39 60.1 39.5 61.1 40.2 61.8C40.9 62.5 41.9 63 43 63V72C43 75.3 45.7 78 49 78H51H53C56.3 78 59 75.3 59 72V63C60.1 63 61.1 62.6 61.8 61.8C62.5 61.1 63 60.1 63 59V50C63 46.7 60.3 44 57 44Z" fill="#19CD15"/>
<path d="M51 40C54.866 40 58 36.866 58 33C58 29.134 54.866 26 51 26C47.134 26 44 29.134 44 33C44 36.866 47.134 40 51 40Z" fill="#19CD15"/>
<path d="M36.6 66.7C36.4 66.5 36.1 66.3 35.9 66.1C34 64.1 32.9 61.6 32.9 59V50C32.9 46.8 34.2 43.8 36.3 41.7C36.9 41.1 36.4 40 35.6 40C33.9 40 32 40 32 40H26C22.7 40 20 42.7 20 46V55C20 56.1 20.5 57.1 21.2 57.8C21.9 58.5 22.9 59 24 59V68C24 71.3 26.7 74 30 74H32H34C34.9 74 35.7 73.8 36.4 73.5C36.8 73.3 37 73 37 72.6C37 71.4 37 68.6 37 67.5C37 67.2 36.9 66.9 36.6 66.7Z" fill="#19CD15"/>
<path d="M32 36C35.866 36 39 32.866 39 29C39 25.134 35.866 22 32 22C28.134 22 25 25.134 25 29C25 32.866 28.134 36 32 36Z" fill="#19CD15"/>
<path d="M76 40H70C70 40 68.1 40 66.4 40C65.5 40 65.1 41 65.7 41.7C67.8 43.9 69.1 46.8 69.1 50V59C69.1 61.6 68.1 64.1 66.1 66.1C65.9 66.3 65.7 66.5 65.4 66.7C65.2 66.9 65 67.2 65 67.5C65 68.6 65 71.3 65 72.6C65 73 65.2 73.4 65.6 73.5C66.3 73.8 67.1 74 68 74H70H72C75.3 74 78 71.3 78 68V59C79.1 59 80.1 58.6 80.8 57.8C81.5 57.1 82 56.1 82 55V46C82 42.7 79.3 40 76 40Z" fill="#19CD15"/>
<path d="M70 36C73.866 36 77 32.866 77 29C77 25.134 73.866 22 70 22C66.134 22 63 25.134 63 29C63 32.866 66.134 36 70 36Z" fill="#19CD15"/>
</svg>
