<svg width="27" height="27" viewBox="0 0 27 27" fill="none" xmlns="http://www.w3.org/2000/svg">
<path d="M13.4999 1.25V9.58333M13.4999 1.25L10.0277 4.72222M13.4999 1.25L16.9721 4.72222M4.92125 9.58385C5.49759 10.0928 5.86106 10.8373 5.86106 11.6667C5.86106 13.2008 4.61742 14.4444 3.08331 14.4444C2.25395 14.4444 1.50948 14.081 1.00051 13.5046M4.92125 9.58385C5.08529 9.58333 5.25935 9.58333 5.4444 9.58333H7.94438M4.92125 9.58385C3.70625 9.58761 3.04019 9.61935 2.51668 9.8861C1.994 10.1524 1.56906 10.5773 1.30276 11.1C1.03601 11.6236 1.00428 12.2896 1.00051 13.5046M1.00051 13.5046C1 13.6686 1 13.8428 1 14.0278V21.8056C1 21.9906 1 22.1647 1.00051 22.3288M1.00051 22.3288C1.50948 21.7524 2.25395 21.3889 3.08331 21.3889C4.61742 21.3889 5.86106 22.6325 5.86106 24.1667C5.86106 24.996 5.49759 25.7406 4.92125 26.2494M1.00051 22.3288C1.00428 23.5438 1.03601 24.2099 1.30276 24.7333C1.56906 25.256 1.994 25.681 2.51668 25.9472C3.04019 26.214 3.70625 26.2457 4.92125 26.2494M4.92125 26.2494C5.08529 26.25 5.25935 26.25 5.4444 26.25H21.5554C21.7403 26.25 21.9145 26.25 22.0785 26.2494M22.0785 26.2494C21.5022 25.7406 21.1387 24.996 21.1387 24.1667C21.1387 22.6325 22.3823 21.3889 23.9164 21.3889C24.746 21.3889 25.4907 21.7526 25.9998 22.3293M22.0785 26.2494C23.2935 26.2457 23.9596 26.214 24.4831 25.9472C25.0057 25.681 25.4307 25.256 25.697 24.7333C25.9636 24.2099 25.996 23.5439 25.9998 22.3293M25.9998 22.3293C26.0003 22.1651 25.9998 21.9908 25.9998 21.8056V14.0278C25.9998 13.8428 25.9998 13.6686 25.9992 13.5046M25.9992 13.5046C25.4903 14.081 24.7457 14.4444 23.9164 14.4444C22.3823 14.4444 21.1387 13.2008 21.1387 11.6667C21.1387 10.8373 21.5022 10.0928 22.0785 9.58385M25.9992 13.5046C25.9954 12.2896 25.9638 11.6236 25.697 11.1C25.4307 10.5773 25.0057 10.1524 24.4831 9.8861C23.9596 9.61935 23.2935 9.58761 22.0785 9.58385M22.0785 9.58385C21.9145 9.58333 21.7403 9.58333 21.5554 9.58333H19.0554M16.2776 17.9167C16.2776 19.4508 15.034 20.6944 13.4999 20.6944C11.9657 20.6944 10.7221 19.4508 10.7221 17.9167C10.7221 16.3825 11.9657 15.1389 13.4999 15.1389C15.034 15.1389 16.2776 16.3825 16.2776 17.9167Z" stroke="black" stroke-width="1.5" stroke-linecap="round" stroke-linejoin="round"/>
</svg>
