<svg width="360" height="849" viewBox="0 0 360 849" fill="none" xmlns="http://www.w3.org/2000/svg">
<g clip-path="url(#clip0_690_4)">
<rect width="360" height="849" fill="white"/>
<path d="M23.8934 45.7592V56.8143H21.9876L17.0295 48.895V56.8143H15.1237V45.7592H17.0295L22.0028 53.6936V45.7592H23.8934ZM25.6321 52.7977V52.6231C25.6321 52.0308 25.7182 51.4816 25.8903 50.9754C26.0624 50.4642 26.3104 50.0213 26.6344 49.6467C26.9634 49.2671 27.3633 48.9735 27.834 48.7659C28.3098 48.5533 28.8464 48.447 29.4437 48.447C30.0461 48.447 30.5826 48.5533 31.0534 48.7659C31.5292 48.9735 31.9316 49.2671 32.2606 49.6467C32.5896 50.0213 32.8402 50.4642 33.0123 50.9754C33.1844 51.4816 33.2705 52.0308 33.2705 52.6231V52.7977C33.2705 53.3899 33.1844 53.9391 33.0123 54.4453C32.8402 54.9515 32.5896 55.3944 32.2606 55.7741C31.9316 56.1486 31.5317 56.4422 31.061 56.6548C30.5902 56.8624 30.0562 56.9661 29.4589 56.9661C28.8565 56.9661 28.3174 56.8624 27.8416 56.6548C27.3709 56.4422 26.971 56.1486 26.642 55.7741C26.3129 55.3944 26.0624 54.9515 25.8903 54.4453C25.7182 53.9391 25.6321 53.3899 25.6321 52.7977ZM27.462 52.6231V52.7977C27.462 53.1672 27.5 53.5165 27.5759 53.8455C27.6518 54.1745 27.7708 54.463 27.9327 54.7111C28.0947 54.9591 28.3023 55.154 28.5553 55.2957C28.8084 55.4374 29.1096 55.5083 29.4589 55.5083C29.798 55.5083 30.0916 55.4374 30.3396 55.2957C30.5927 55.154 30.8003 54.9591 30.9623 54.7111C31.1242 54.463 31.2432 54.1745 31.3191 53.8455C31.4001 53.5165 31.4406 53.1672 31.4406 52.7977V52.6231C31.4406 52.2586 31.4001 51.9144 31.3191 51.5904C31.2432 51.2614 31.1217 50.9704 30.9547 50.7173C30.7927 50.4642 30.5851 50.2668 30.3321 50.125C30.084 49.9782 29.7879 49.9048 29.4437 49.9048C29.0995 49.9048 28.8008 49.9782 28.5478 50.125C28.2997 50.2668 28.0947 50.4642 27.9327 50.7173C27.7708 50.9704 27.6518 51.2614 27.5759 51.5904C27.5 51.9144 27.462 52.2586 27.462 52.6231ZM38.5702 48.5989V49.9352H33.9386V48.5989H38.5702ZM35.275 46.5868H37.1048V54.544C37.1048 54.7971 37.1402 54.992 37.2111 55.1287C37.287 55.2603 37.3908 55.3489 37.5224 55.3944C37.654 55.44 37.8084 55.4628 37.9856 55.4628C38.1121 55.4628 38.2336 55.4552 38.35 55.44C38.4664 55.4248 38.5601 55.4096 38.631 55.3944L38.6386 56.7915C38.4867 56.837 38.3095 56.8775 38.1071 56.913C37.9096 56.9484 37.6819 56.9661 37.4237 56.9661C37.0036 56.9661 36.6315 56.8927 36.3076 56.7459C35.9836 56.5941 35.7305 56.3486 35.5483 56.0094C35.3661 55.6703 35.275 55.2198 35.275 54.6579V46.5868ZM41.9414 48.5989V56.8143H40.104V48.5989H41.9414ZM39.9825 46.4425C39.9825 46.1641 40.0736 45.9338 40.2558 45.7516C40.4431 45.5643 40.7013 45.4707 41.0303 45.4707C41.3542 45.4707 41.6099 45.5643 41.7971 45.7516C41.9844 45.9338 42.0781 46.1641 42.0781 46.4425C42.0781 46.7159 41.9844 46.9437 41.7971 47.1259C41.6099 47.3081 41.3542 47.3992 41.0303 47.3992C40.7013 47.3992 40.4431 47.3081 40.2558 47.1259C40.0736 46.9437 39.9825 46.7159 39.9825 46.4425ZM46.2997 56.8143H44.4622V48.0674C44.4622 47.4043 44.5938 46.845 44.857 46.3894C45.1253 45.9338 45.5075 45.5871 46.0035 45.3492C46.5047 45.1113 47.0994 44.9923 47.7878 44.9923C48.1928 44.9923 48.5826 45.0353 48.9571 45.1214C49.3368 45.2075 49.7291 45.3163 50.134 45.4479L49.8531 46.9361C49.5949 46.85 49.3089 46.769 48.9951 46.6931C48.6813 46.6121 48.3193 46.5716 47.9093 46.5716C47.3576 46.5716 46.9501 46.6982 46.6869 46.9513C46.4287 47.1993 46.2997 47.5713 46.2997 48.0674V56.8143ZM47.9473 48.5989V49.9352H43.2018V48.5989H47.9473ZM50.9996 48.5989V56.8143H49.1697V48.5989H50.9996ZM56.398 55.5083C56.6967 55.5083 56.965 55.4501 57.2029 55.3337C57.4458 55.2122 57.6407 55.0452 57.7875 54.8326C57.9394 54.62 58.0229 54.3745 58.0381 54.0961H59.7616C59.7515 54.6276 59.5946 55.111 59.2909 55.5463C58.9872 55.9816 58.5848 56.3283 58.0836 56.5865C57.5825 56.8396 57.0282 56.9661 56.4208 56.9661C55.7932 56.9661 55.2465 56.8598 54.7808 56.6472C54.3151 56.4296 53.9279 56.1309 53.6191 55.7513C53.3103 55.3716 53.0775 54.9338 52.9206 54.4377C52.7687 53.9417 52.6928 53.4102 52.6928 52.8432V52.5775C52.6928 52.0106 52.7687 51.4791 52.9206 50.983C53.0775 50.4819 53.3103 50.0415 53.6191 49.6619C53.9279 49.2822 54.3151 48.9861 54.7808 48.7735C55.2465 48.5559 55.7906 48.447 56.4132 48.447C57.0713 48.447 57.6483 48.5786 58.1444 48.8419C58.6404 49.1 59.0302 49.4619 59.3137 49.9276C59.6022 50.3883 59.7515 50.9248 59.7616 51.5373H58.0381C58.0229 51.2336 57.947 50.9602 57.8103 50.7173C57.6787 50.4692 57.4914 50.2718 57.2484 50.125C57.0105 49.9782 56.7245 49.9048 56.3905 49.9048C56.0209 49.9048 55.7147 49.9808 55.4717 50.1326C55.2288 50.2794 55.0389 50.4819 54.9023 50.7401C54.7656 50.9931 54.6669 51.2791 54.6062 51.598C54.5505 51.9119 54.5226 52.2384 54.5226 52.5775V52.8432C54.5226 53.1824 54.5505 53.5114 54.6062 53.8303C54.6618 54.1492 54.758 54.4352 54.8947 54.6883C55.0364 54.9363 55.2288 55.1363 55.4717 55.2881C55.7147 55.4349 56.0235 55.5083 56.398 55.5083ZM65.7979 55.1666V51.2488C65.7979 50.9552 65.7448 50.7021 65.6385 50.4895C65.5322 50.2769 65.3702 50.1124 65.1525 49.996C64.9399 49.8795 64.6716 49.8213 64.3477 49.8213C64.049 49.8213 63.7909 49.8719 63.5732 49.9732C63.3556 50.0744 63.186 50.2111 63.0645 50.3832C62.943 50.5553 62.8823 50.7502 62.8823 50.9678H61.06C61.06 50.6439 61.1385 50.33 61.2954 50.0263C61.4523 49.7226 61.6801 49.4518 61.9787 49.2139C62.2774 48.976 62.6342 48.7887 63.0493 48.652C63.4644 48.5154 63.9301 48.447 64.4464 48.447C65.0639 48.447 65.6106 48.5508 66.0864 48.7583C66.5673 48.9659 66.9444 49.2797 67.2177 49.6998C67.4962 50.1149 67.6354 50.6363 67.6354 51.264V54.9161C67.6354 55.2907 67.6607 55.6273 67.7113 55.9259C67.767 56.2195 67.8454 56.4751 67.9467 56.6928V56.8143H66.0712C65.9852 56.6169 65.9169 56.3663 65.8662 56.0626C65.8207 55.7538 65.7979 55.4552 65.7979 55.1666ZM66.0636 51.8182L66.0788 52.9495H64.7653C64.4261 52.9495 64.1275 52.9825 63.8693 53.0483C63.6112 53.109 63.3961 53.2001 63.2239 53.3216C63.0518 53.4431 62.9228 53.5899 62.8367 53.762C62.7507 53.9341 62.7076 54.129 62.7076 54.3466C62.7076 54.5643 62.7583 54.7642 62.8595 54.9464C62.9607 55.1236 63.1075 55.2628 63.2999 55.3641C63.4973 55.4653 63.7352 55.5159 64.0136 55.5159C64.3882 55.5159 64.7147 55.44 64.9931 55.2881C65.2765 55.1312 65.4993 54.9414 65.6612 54.7187C65.8232 54.4909 65.9093 54.2758 65.9194 54.0733L66.5116 54.8857C66.4509 55.0932 66.3471 55.316 66.2003 55.5539C66.0535 55.7918 65.8612 56.0196 65.6233 56.2372C65.3904 56.4498 65.1095 56.6245 64.7805 56.7611C64.4565 56.8978 64.0819 56.9661 63.6567 56.9661C63.1202 56.9661 62.6418 56.8598 62.2217 56.6472C61.8016 56.4296 61.4725 56.1385 61.2346 55.7741C60.9967 55.4045 60.8778 54.9869 60.8778 54.5213C60.8778 54.0859 60.9588 53.7012 61.1208 53.3672C61.2878 53.028 61.5308 52.7445 61.8497 52.5168C62.1736 52.289 62.5684 52.1169 63.0341 52.0005C63.4998 51.879 64.0313 51.8182 64.6286 51.8182H66.0636ZM72.9047 55.5083C73.2034 55.5083 73.4717 55.4501 73.7096 55.3337C73.9525 55.2122 74.1474 55.0452 74.2942 54.8326C74.4461 54.62 74.5296 54.3745 74.5448 54.0961H76.2683C76.2582 54.6276 76.1013 55.111 75.7976 55.5463C75.4939 55.9816 75.0915 56.3283 74.5903 56.5865C74.0892 56.8396 73.5349 56.9661 72.9275 56.9661C72.2998 56.9661 71.7532 56.8598 71.2875 56.6472C70.8218 56.4296 70.4346 56.1309 70.1258 55.7513C69.817 55.3716 69.5842 54.9338 69.4272 54.4377C69.2754 53.9417 69.1995 53.4102 69.1995 52.8432V52.5775C69.1995 52.0106 69.2754 51.4791 69.4272 50.983C69.5842 50.4819 69.817 50.0415 70.1258 49.6619C70.4346 49.2822 70.8218 48.9861 71.2875 48.7735C71.7532 48.5559 72.2973 48.447 72.9199 48.447C73.578 48.447 74.155 48.5786 74.6511 48.8419C75.1471 49.1 75.5369 49.4619 75.8204 49.9276C76.1089 50.3883 76.2582 50.9248 76.2683 51.5373H74.5448C74.5296 51.2336 74.4537 50.9602 74.317 50.7173C74.1854 50.4692 73.9981 50.2718 73.7551 50.125C73.5172 49.9782 73.2312 49.9048 72.8971 49.9048C72.5276 49.9048 72.2214 49.9808 71.9784 50.1326C71.7355 50.2794 71.5456 50.4819 71.409 50.7401C71.2723 50.9931 71.1736 51.2791 71.1128 51.598C71.0572 51.9119 71.0293 52.2384 71.0293 52.5775V52.8432C71.0293 53.1824 71.0572 53.5114 71.1128 53.8303C71.1685 54.1492 71.2647 54.4352 71.4014 54.6883C71.5431 54.9363 71.7355 55.1363 71.9784 55.2881C72.2214 55.4349 72.5302 55.5083 72.9047 55.5083ZM79.6319 48.5989V56.8143H77.7945V48.5989H79.6319ZM77.673 46.4425C77.673 46.1641 77.7641 45.9338 77.9463 45.7516C78.1336 45.5643 78.3918 45.4707 78.7208 45.4707C79.0448 45.4707 79.3004 45.5643 79.4877 45.7516C79.675 45.9338 79.7686 46.1641 79.7686 46.4425C79.7686 46.7159 79.675 46.9437 79.4877 47.1259C79.3004 47.3081 79.0448 47.3992 78.7208 47.3992C78.3918 47.3992 78.1336 47.3081 77.9463 47.1259C77.7641 46.9437 77.673 46.7159 77.673 46.4425ZM81.2872 52.7977V52.6231C81.2872 52.0308 81.3732 51.4816 81.5453 50.9754C81.7174 50.4642 81.9654 50.0213 82.2894 49.6467C82.6184 49.2671 83.0183 48.9735 83.4891 48.7659C83.9649 48.5533 84.5014 48.447 85.0987 48.447C85.7011 48.447 86.2376 48.5533 86.7084 48.7659C87.1842 48.9735 87.5866 49.2671 87.9157 49.6467C88.2447 50.0213 88.4952 50.4642 88.6673 50.9754C88.8394 51.4816 88.9255 52.0308 88.9255 52.6231V52.7977C88.9255 53.3899 88.8394 53.9391 88.6673 54.4453C88.4952 54.9515 88.2447 55.3944 87.9157 55.7741C87.5866 56.1486 87.1867 56.4422 86.716 56.6548C86.2452 56.8624 85.7112 56.9661 85.1139 56.9661C84.5116 56.9661 83.9725 56.8624 83.4967 56.6548C83.0259 56.4422 82.626 56.1486 82.297 55.7741C81.968 55.3944 81.7174 54.9515 81.5453 54.4453C81.3732 53.9391 81.2872 53.3899 81.2872 52.7977ZM83.117 52.6231V52.7977C83.117 53.1672 83.155 53.5165 83.2309 53.8455C83.3068 54.1745 83.4258 54.463 83.5878 54.7111C83.7497 54.9591 83.9573 55.154 84.2104 55.2957C84.4635 55.4374 84.7647 55.5083 85.1139 55.5083C85.4531 55.5083 85.7466 55.4374 85.9947 55.2957C86.2478 55.154 86.4553 54.9591 86.6173 54.7111C86.7793 54.463 86.8982 54.1745 86.9741 53.8455C87.0551 53.5165 87.0956 53.1672 87.0956 52.7977V52.6231C87.0956 52.2586 87.0551 51.9144 86.9741 51.5904C86.8982 51.2614 86.7767 50.9704 86.6097 50.7173C86.4477 50.4642 86.2402 50.2668 85.9871 50.125C85.7391 49.9782 85.4429 49.9048 85.0987 49.9048C84.7545 49.9048 84.4559 49.9782 84.2028 50.125C83.9548 50.2668 83.7497 50.4642 83.5878 50.7173C83.4258 50.9704 83.3068 51.2614 83.2309 51.5904C83.155 51.9144 83.117 52.2586 83.117 52.6231ZM92.2739 50.3528V56.8143H90.444V48.5989H92.1676L92.2739 50.3528ZM91.9474 52.4029L91.3552 52.3953C91.3602 51.8132 91.4412 51.2791 91.5981 50.7932C91.7601 50.3073 91.9828 49.8897 92.2663 49.5404C92.5548 49.1911 92.899 48.9228 93.2989 48.7356C93.6988 48.5432 94.1443 48.447 94.6353 48.447C95.0301 48.447 95.3869 48.5027 95.7058 48.6141C96.0298 48.7204 96.3057 48.895 96.5334 49.138C96.7663 49.3809 96.9435 49.6973 97.0649 50.0871C97.1864 50.4718 97.2472 50.9451 97.2472 51.5069V56.8143H95.4097V51.4993C95.4097 51.1045 95.3515 50.7932 95.2351 50.5654C95.1237 50.3326 94.9592 50.1681 94.7416 50.0719C94.529 49.9707 94.2632 49.92 93.9443 49.92C93.6305 49.92 93.3495 49.9858 93.1015 50.1174C92.8535 50.2491 92.6434 50.4287 92.4713 50.6565C92.3043 50.8843 92.1752 51.1475 92.0841 51.4462C91.993 51.7448 91.9474 52.0637 91.9474 52.4029ZM102.737 56.9661C102.129 56.9661 101.58 56.8674 101.089 56.67C100.603 56.4675 100.188 56.1866 99.8439 55.8272C99.5048 55.4678 99.2441 55.0452 99.0618 54.5592C98.8796 54.0733 98.7885 53.5494 98.7885 52.9875V52.6838C98.7885 52.0409 98.8821 51.4588 99.0694 50.9375C99.2567 50.4161 99.5174 49.9707 99.8515 49.6011C100.186 49.2266 100.58 48.9406 101.036 48.7432C101.492 48.5457 101.985 48.447 102.517 48.447C103.104 48.447 103.618 48.5457 104.058 48.7432C104.498 48.9406 104.863 49.219 105.151 49.5784C105.445 49.9327 105.662 50.3554 105.804 50.8464C105.951 51.3373 106.024 51.879 106.024 52.4712V53.2533H99.6769V51.9397H104.217V51.7954C104.207 51.4664 104.141 51.1577 104.02 50.8691C103.903 50.5806 103.724 50.3478 103.481 50.1706C103.238 49.9934 102.914 49.9048 102.509 49.9048C102.205 49.9048 101.934 49.9707 101.697 50.1023C101.464 50.2288 101.269 50.4136 101.112 50.6565C100.955 50.8995 100.833 51.1931 100.747 51.5373C100.666 51.8764 100.626 52.2586 100.626 52.6838V52.9875C100.626 53.3469 100.674 53.681 100.77 53.9898C100.871 54.2935 101.018 54.5592 101.211 54.787C101.403 55.0148 101.636 55.1945 101.909 55.3261C102.182 55.4526 102.494 55.5159 102.843 55.5159C103.283 55.5159 103.676 55.4273 104.02 55.2502C104.364 55.073 104.663 54.8224 104.916 54.4985L105.88 55.4324C105.703 55.6905 105.473 55.9386 105.189 56.1765C104.906 56.4093 104.559 56.5991 104.149 56.7459C103.744 56.8927 103.273 56.9661 102.737 56.9661ZM112.061 54.5896C112.061 54.4074 112.015 54.2429 111.924 54.0961C111.833 53.9442 111.658 53.8075 111.4 53.686C111.147 53.5646 110.772 53.4532 110.276 53.352C109.841 53.2558 109.441 53.1419 109.077 53.0103C108.717 52.8736 108.409 52.7091 108.15 52.5168C107.892 52.3244 107.692 52.0966 107.551 51.8334C107.409 51.5702 107.338 51.2665 107.338 50.9223C107.338 50.5882 107.411 50.2718 107.558 49.9732C107.705 49.6745 107.915 49.4113 108.188 49.1835C108.462 48.9557 108.793 48.7761 109.183 48.6444C109.578 48.5128 110.018 48.447 110.504 48.447C111.193 48.447 111.782 48.5635 112.273 48.7963C112.769 49.0241 113.149 49.3354 113.412 49.7302C113.675 50.12 113.807 50.5604 113.807 51.0514H111.977C111.977 50.8337 111.921 50.6312 111.81 50.4439C111.704 50.2516 111.542 50.0972 111.324 49.9808C111.107 49.8593 110.833 49.7985 110.504 49.7985C110.19 49.7985 109.93 49.8492 109.722 49.9504C109.52 50.0466 109.368 50.1731 109.267 50.33C109.17 50.487 109.122 50.6591 109.122 50.8464C109.122 50.983 109.148 51.107 109.198 51.2184C109.254 51.3247 109.345 51.4234 109.472 51.5145C109.598 51.6006 109.77 51.6816 109.988 51.7575C110.211 51.8334 110.489 51.9068 110.823 51.9777C111.451 52.1093 111.99 52.2789 112.44 52.4864C112.896 52.6889 113.245 52.9521 113.488 53.276C113.731 53.5949 113.853 53.9999 113.853 54.4909C113.853 54.8553 113.774 55.1894 113.617 55.4931C113.465 55.7918 113.243 56.0525 112.949 56.2752C112.655 56.4928 112.304 56.6624 111.894 56.7839C111.489 56.9054 111.033 56.9661 110.527 56.9661C109.783 56.9661 109.153 56.8345 108.636 56.5713C108.12 56.303 107.728 55.9613 107.459 55.5463C107.196 55.1261 107.065 54.6908 107.065 54.2403H108.834C108.854 54.5795 108.948 54.8503 109.115 55.0527C109.287 55.2502 109.499 55.3944 109.752 55.4855C110.011 55.5716 110.276 55.6146 110.55 55.6146C110.879 55.6146 111.155 55.5716 111.377 55.4855C111.6 55.3944 111.77 55.2729 111.886 55.1211C112.002 54.9642 112.061 54.787 112.061 54.5896Z" fill="black"/>
<rect y="78" width="360" height="1" fill="#D9D9D9"/>
<path d="M169.125 370.458C172.349 368.068 176.271 366.667 180.5 366.667C184.729 366.667 188.651 368.068 191.875 370.458" stroke="#0449FB" stroke-width="5.6875" stroke-linecap="round"/>
<path d="M191.875 351.5C193.969 351.5 195.667 348.954 195.667 345.812C195.667 342.671 193.969 340.125 191.875 340.125C189.781 340.125 188.083 342.671 188.083 345.812C188.083 348.954 189.781 351.5 191.875 351.5Z" fill="#0449FB"/>
<path d="M169.125 351.5C171.219 351.5 172.917 348.954 172.917 345.812C172.917 342.671 171.219 340.125 169.125 340.125C167.031 340.125 165.333 342.671 165.333 345.812C165.333 348.954 167.031 351.5 169.125 351.5Z" fill="#0449FB"/>
<path d="M217.636 346.921V343.09C217.636 322.053 201.205 305 180.937 305C160.67 305 144.239 322.053 144.239 343.09V346.921C144.239 351.519 142.928 356.014 140.471 359.839L134.449 369.214C128.949 377.777 133.148 389.417 142.714 392.124C167.739 399.208 194.136 399.208 219.161 392.124C228.728 389.417 232.926 377.777 227.426 369.214L221.404 359.839C218.947 356.014 217.636 351.519 217.636 346.921Z" stroke="#0449FB" stroke-opacity="0.8" stroke-width="8.15625"/>
<circle cx="205.5" cy="309.5" r="16.5" fill="#F9A90D"/>
<path d="M77.1118 422.434V434.298H75.0666L69.7457 425.799V434.298H67.7005V422.434H69.7457L75.0829 430.949V422.434H77.1118ZM78.9777 429.987V429.8C78.9777 429.164 79.0701 428.575 79.2548 428.032C79.4395 427.483 79.7056 427.008 80.0533 426.606C80.4064 426.199 80.8355 425.883 81.3407 425.661C81.8514 425.433 82.4272 425.318 83.0682 425.318C83.7146 425.318 84.2904 425.433 84.7956 425.661C85.3062 425.883 85.7381 426.199 86.0912 426.606C86.4443 427.008 86.7132 427.483 86.8978 428.032C87.0825 428.575 87.1749 429.164 87.1749 429.8V429.987C87.1749 430.623 87.0825 431.212 86.8978 431.756C86.7132 432.299 86.4443 432.774 86.0912 433.182C85.7381 433.584 85.3089 433.899 84.8037 434.127C84.2985 434.349 83.7255 434.461 83.0845 434.461C82.438 434.461 81.8595 434.349 81.3489 434.127C80.8437 433.899 80.4145 433.584 80.0614 433.182C79.7084 432.774 79.4395 432.299 79.2548 431.756C79.0701 431.212 78.9777 430.623 78.9777 429.987ZM80.9415 429.8V429.987C80.9415 430.384 80.9822 430.759 81.0637 431.112C81.1452 431.465 81.2728 431.775 81.4467 432.041C81.6205 432.307 81.8432 432.516 82.1148 432.668C82.3864 432.82 82.7096 432.896 83.0845 432.896C83.4484 432.896 83.7635 432.82 84.0297 432.668C84.3013 432.516 84.524 432.307 84.6978 432.041C84.8716 431.775 84.9993 431.465 85.0808 431.112C85.1677 430.759 85.2112 430.384 85.2112 429.987V429.8C85.2112 429.409 85.1677 429.04 85.0808 428.692C84.9993 428.339 84.8689 428.026 84.6897 427.755C84.5158 427.483 84.2931 427.271 84.0215 427.119C83.7553 426.962 83.4375 426.883 83.0682 426.883C82.6988 426.883 82.3783 426.962 82.1067 427.119C81.8405 427.271 81.6205 427.483 81.4467 427.755C81.2728 428.026 81.1452 428.339 81.0637 428.692C80.9822 429.04 80.9415 429.409 80.9415 429.8ZM97.018 425.481V426.916H92.0476V425.481H97.018ZM93.4817 423.322H95.4454V431.862C95.4454 432.133 95.4834 432.342 95.5595 432.489C95.6409 432.63 95.7523 432.725 95.8935 432.774C96.0348 432.823 96.2005 432.847 96.3906 432.847C96.5264 432.847 96.6568 432.839 96.7817 432.823C96.9066 432.807 97.0071 432.79 97.0832 432.774L97.0913 434.273C96.9284 434.322 96.7382 434.366 96.521 434.404C96.3091 434.442 96.0647 434.461 95.7876 434.461C95.3367 434.461 94.9375 434.382 94.5898 434.225C94.2422 434.062 93.9705 433.798 93.775 433.434C93.5794 433.07 93.4817 432.587 93.4817 431.984V423.322ZM100.636 425.481V434.298H98.664V425.481H100.636ZM98.5336 423.167C98.5336 422.869 98.6314 422.621 98.8269 422.426C99.0279 422.225 99.3049 422.124 99.658 422.124C100.006 422.124 100.28 422.225 100.481 422.426C100.682 422.621 100.783 422.869 100.783 423.167C100.783 423.461 100.682 423.705 100.481 423.901C100.28 424.096 100.006 424.194 99.658 424.194C99.3049 424.194 99.0279 424.096 98.8269 423.901C98.6314 423.705 98.5336 423.461 98.5336 423.167ZM106.674 434.461C106.022 434.461 105.432 434.355 104.906 434.143C104.384 433.926 103.939 433.624 103.569 433.239C103.205 432.853 102.925 432.399 102.73 431.878C102.534 431.356 102.437 430.794 102.437 430.191V429.865C102.437 429.175 102.537 428.551 102.738 427.991C102.939 427.432 103.219 426.954 103.577 426.557C103.936 426.155 104.36 425.848 104.848 425.636C105.337 425.424 105.867 425.318 106.437 425.318C107.068 425.318 107.619 425.424 108.092 425.636C108.564 425.848 108.955 426.147 109.265 426.533C109.58 426.913 109.814 427.366 109.966 427.893C110.123 428.42 110.202 429.002 110.202 429.637V430.476H103.39V429.067H108.263V428.912C108.252 428.559 108.181 428.227 108.051 427.918C107.926 427.608 107.733 427.358 107.472 427.168C107.211 426.978 106.864 426.883 106.429 426.883C106.103 426.883 105.813 426.954 105.557 427.095C105.308 427.231 105.098 427.429 104.93 427.69C104.762 427.95 104.631 428.265 104.539 428.635C104.452 428.999 104.408 429.409 104.408 429.865V430.191C104.408 430.577 104.46 430.935 104.563 431.267C104.672 431.593 104.829 431.878 105.036 432.122C105.242 432.367 105.492 432.56 105.786 432.701C106.079 432.837 106.413 432.905 106.788 432.905C107.26 432.905 107.681 432.809 108.051 432.619C108.42 432.429 108.741 432.16 109.012 431.813L110.047 432.815C109.857 433.092 109.61 433.358 109.306 433.613C109.001 433.863 108.629 434.067 108.189 434.225C107.755 434.382 107.25 434.461 106.674 434.461ZM113.681 427.364V434.298H111.717V425.481H113.567L113.681 427.364ZM113.331 429.564L112.695 429.556C112.701 428.931 112.788 428.358 112.956 427.836C113.13 427.315 113.369 426.867 113.673 426.492C113.983 426.117 114.352 425.829 114.781 425.628C115.21 425.422 115.688 425.318 116.215 425.318C116.639 425.318 117.022 425.378 117.364 425.498C117.712 425.612 118.008 425.799 118.252 426.06C118.502 426.321 118.692 426.66 118.823 427.079C118.953 427.491 119.018 427.999 119.018 428.602V434.298H117.046V428.594C117.046 428.17 116.984 427.836 116.859 427.592C116.74 427.342 116.563 427.165 116.329 427.062C116.101 426.954 115.816 426.899 115.474 426.899C115.137 426.899 114.836 426.97 114.569 427.111C114.303 427.252 114.078 427.445 113.893 427.69C113.714 427.934 113.575 428.217 113.478 428.537C113.38 428.858 113.331 429.2 113.331 429.564ZM124.91 434.461C124.258 434.461 123.668 434.355 123.141 434.143C122.62 433.926 122.174 433.624 121.805 433.239C121.441 432.853 121.161 432.399 120.966 431.878C120.77 431.356 120.672 430.794 120.672 430.191V429.865C120.672 429.175 120.773 428.551 120.974 427.991C121.175 427.432 121.455 426.954 121.813 426.557C122.172 426.155 122.595 425.848 123.084 425.636C123.573 425.424 124.103 425.318 124.673 425.318C125.303 425.318 125.855 425.424 126.327 425.636C126.8 425.848 127.191 426.147 127.501 426.533C127.816 426.913 128.049 427.366 128.201 427.893C128.359 428.42 128.438 429.002 128.438 429.637V430.476H121.626V429.067H126.498V428.912C126.488 428.559 126.417 428.227 126.287 427.918C126.162 427.608 125.969 427.358 125.708 427.168C125.447 426.978 125.1 426.883 124.665 426.883C124.339 426.883 124.049 426.954 123.793 427.095C123.543 427.231 123.334 427.429 123.166 427.69C122.997 427.95 122.867 428.265 122.775 428.635C122.688 428.999 122.644 429.409 122.644 429.865V430.191C122.644 430.577 122.696 430.935 122.799 431.267C122.908 431.593 123.065 431.878 123.272 432.122C123.478 432.367 123.728 432.56 124.021 432.701C124.315 432.837 124.649 432.905 125.024 432.905C125.496 432.905 125.917 432.809 126.287 432.619C126.656 432.429 126.976 432.16 127.248 431.813L128.283 432.815C128.093 433.092 127.846 433.358 127.541 433.613C127.237 433.863 126.865 434.067 126.425 434.225C125.991 434.382 125.485 434.461 124.91 434.461ZM134.916 431.91C134.916 431.715 134.867 431.538 134.769 431.381C134.671 431.218 134.484 431.071 134.207 430.941C133.935 430.81 133.533 430.691 133.001 430.582C132.534 430.479 132.104 430.357 131.713 430.216C131.328 430.069 130.996 429.892 130.719 429.686C130.442 429.48 130.228 429.235 130.076 428.953C129.923 428.67 129.847 428.344 129.847 427.975C129.847 427.616 129.926 427.277 130.084 426.956C130.241 426.636 130.467 426.353 130.76 426.109C131.053 425.864 131.409 425.672 131.827 425.53C132.251 425.389 132.724 425.318 133.245 425.318C133.984 425.318 134.617 425.443 135.144 425.693C135.676 425.938 136.084 426.272 136.366 426.696C136.648 427.114 136.79 427.586 136.79 428.113H134.826C134.826 427.88 134.766 427.662 134.647 427.461C134.533 427.255 134.359 427.089 134.125 426.964C133.892 426.834 133.598 426.769 133.245 426.769C132.908 426.769 132.629 426.823 132.406 426.932C132.189 427.035 132.026 427.171 131.917 427.339C131.814 427.508 131.762 427.692 131.762 427.893C131.762 428.04 131.789 428.173 131.844 428.293C131.903 428.407 132.001 428.513 132.137 428.61C132.273 428.703 132.458 428.79 132.691 428.871C132.93 428.953 133.229 429.031 133.587 429.107C134.261 429.249 134.84 429.431 135.323 429.653C135.812 429.871 136.187 430.153 136.447 430.501C136.708 430.843 136.839 431.278 136.839 431.805C136.839 432.196 136.754 432.554 136.586 432.88C136.423 433.201 136.184 433.48 135.869 433.719C135.554 433.953 135.176 434.135 134.736 434.265C134.302 434.396 133.813 434.461 133.27 434.461C132.471 434.461 131.795 434.32 131.241 434.037C130.687 433.749 130.266 433.383 129.978 432.937C129.695 432.486 129.554 432.019 129.554 431.536H131.453C131.474 431.9 131.575 432.19 131.754 432.407C131.939 432.619 132.167 432.774 132.439 432.872C132.716 432.964 133.001 433.01 133.294 433.01C133.647 433.01 133.943 432.964 134.182 432.872C134.421 432.774 134.603 432.644 134.728 432.481C134.853 432.312 134.916 432.122 134.916 431.91ZM144.661 427.364V434.298H142.697V425.481H144.547L144.661 427.364ZM144.311 429.564L143.675 429.556C143.68 428.931 143.767 428.358 143.936 427.836C144.11 427.315 144.349 426.867 144.653 426.492C144.962 426.117 145.332 425.829 145.761 425.628C146.19 425.422 146.668 425.318 147.195 425.318C147.619 425.318 148.002 425.378 148.344 425.498C148.692 425.612 148.988 425.799 149.232 426.06C149.482 426.321 149.672 426.66 149.803 427.079C149.933 427.491 149.998 427.999 149.998 428.602V434.298H148.026V428.594C148.026 428.17 147.964 427.836 147.839 427.592C147.719 427.342 147.543 427.165 147.309 427.062C147.081 426.954 146.796 426.899 146.454 426.899C146.117 426.899 145.815 426.97 145.549 427.111C145.283 427.252 145.057 427.445 144.873 427.69C144.694 427.934 144.555 428.217 144.457 428.537C144.359 428.858 144.311 429.2 144.311 429.564ZM154.105 425.481V434.298H152.133V425.481H154.105ZM152.003 423.167C152.003 422.869 152.1 422.621 152.296 422.426C152.497 422.225 152.774 422.124 153.127 422.124C153.475 422.124 153.749 422.225 153.95 422.426C154.151 422.621 154.251 422.869 154.251 423.167C154.251 423.461 154.151 423.705 153.95 423.901C153.749 424.096 153.475 424.194 153.127 424.194C152.774 424.194 152.497 424.096 152.296 423.901C152.1 423.705 152.003 423.461 152.003 423.167ZM158.203 427.364V434.298H156.24V425.481H158.089L158.203 427.364ZM157.853 429.564L157.217 429.556C157.223 428.931 157.31 428.358 157.478 427.836C157.652 427.315 157.891 426.867 158.195 426.492C158.505 426.117 158.874 425.829 159.303 425.628C159.733 425.422 160.211 425.318 160.737 425.318C161.161 425.318 161.544 425.378 161.886 425.498C162.234 425.612 162.53 425.799 162.775 426.06C163.024 426.321 163.215 426.66 163.345 427.079C163.475 427.491 163.54 427.999 163.54 428.602V434.298H161.569V428.594C161.569 428.17 161.506 427.836 161.381 427.592C161.262 427.342 161.085 427.165 160.852 427.062C160.623 426.954 160.338 426.899 159.996 426.899C159.659 426.899 159.358 426.97 159.092 427.111C158.825 427.252 158.6 427.445 158.415 427.69C158.236 427.934 158.097 428.217 158 428.537C157.902 428.858 157.853 429.2 157.853 429.564ZM171.192 425.481H172.976V434.053C172.976 434.847 172.808 435.52 172.471 436.074C172.134 436.628 171.664 437.049 171.061 437.337C170.458 437.631 169.76 437.777 168.967 437.777C168.63 437.777 168.256 437.728 167.843 437.631C167.435 437.533 167.039 437.375 166.653 437.158C166.273 436.946 165.955 436.666 165.7 436.319L166.621 435.162C166.936 435.536 167.283 435.811 167.664 435.985C168.044 436.158 168.443 436.245 168.861 436.245C169.312 436.245 169.695 436.161 170.01 435.993C170.331 435.83 170.578 435.588 170.752 435.268C170.926 434.947 171.012 434.556 171.012 434.094V427.478L171.192 425.481ZM165.203 429.987V429.816C165.203 429.148 165.284 428.54 165.447 427.991C165.61 427.437 165.844 426.962 166.148 426.565C166.452 426.163 166.822 425.856 167.256 425.644C167.691 425.427 168.182 425.318 168.731 425.318C169.301 425.318 169.788 425.422 170.189 425.628C170.597 425.835 170.936 426.131 171.208 426.516C171.48 426.897 171.691 427.353 171.844 427.885C172.001 428.412 172.118 428.999 172.194 429.645V430.191C172.123 430.821 172.004 431.397 171.835 431.919C171.667 432.44 171.444 432.891 171.167 433.271C170.89 433.651 170.548 433.945 170.141 434.151C169.739 434.358 169.263 434.461 168.715 434.461C168.177 434.461 167.691 434.349 167.256 434.127C166.827 433.904 166.458 433.592 166.148 433.19C165.844 432.788 165.61 432.315 165.447 431.772C165.284 431.223 165.203 430.628 165.203 429.987ZM167.166 429.816V429.987C167.166 430.389 167.205 430.764 167.281 431.112C167.362 431.46 167.484 431.766 167.647 432.033C167.816 432.293 168.027 432.5 168.283 432.652C168.544 432.799 168.85 432.872 169.204 432.872C169.665 432.872 170.043 432.774 170.336 432.579C170.635 432.383 170.863 432.12 171.021 431.788C171.184 431.451 171.298 431.077 171.363 430.664V429.189C171.33 428.868 171.262 428.57 171.159 428.293C171.061 428.016 170.928 427.774 170.76 427.567C170.591 427.356 170.38 427.193 170.124 427.079C169.869 426.959 169.567 426.899 169.22 426.899C168.867 426.899 168.56 426.975 168.299 427.127C168.038 427.28 167.824 427.489 167.655 427.755C167.492 428.021 167.37 428.331 167.289 428.684C167.207 429.037 167.166 429.414 167.166 429.816ZM180.318 432.22V425.481H182.29V434.298H180.432L180.318 432.22ZM180.595 430.387L181.255 430.37C181.255 430.963 181.19 431.508 181.059 432.008C180.929 432.503 180.728 432.934 180.456 433.304C180.185 433.668 179.837 433.953 179.413 434.159C178.99 434.36 178.482 434.461 177.89 434.461C177.46 434.461 177.067 434.398 176.708 434.273C176.35 434.148 176.04 433.956 175.779 433.695C175.524 433.434 175.326 433.095 175.184 432.676C175.043 432.258 174.973 431.758 174.973 431.177V425.481H176.936V431.193C176.936 431.514 176.974 431.783 177.05 432C177.126 432.212 177.23 432.383 177.36 432.513C177.49 432.644 177.642 432.736 177.816 432.79C177.99 432.845 178.175 432.872 178.37 432.872C178.93 432.872 179.37 432.763 179.69 432.546C180.016 432.323 180.247 432.025 180.383 431.65C180.524 431.275 180.595 430.854 180.595 430.387ZM186.25 427.364V434.298H184.286V425.481H186.136L186.25 427.364ZM185.899 429.564L185.264 429.556C185.269 428.931 185.356 428.358 185.525 427.836C185.698 427.315 185.937 426.867 186.242 426.492C186.551 426.117 186.921 425.829 187.35 425.628C187.779 425.422 188.257 425.318 188.784 425.318C189.208 425.318 189.591 425.378 189.933 425.498C190.28 425.612 190.576 425.799 190.821 426.06C191.071 426.321 191.261 426.66 191.391 427.079C191.522 427.491 191.587 427.999 191.587 428.602V434.298H189.615V428.594C189.615 428.17 189.552 427.836 189.428 427.592C189.308 427.342 189.131 427.165 188.898 427.062C188.67 426.954 188.385 426.899 188.042 426.899C187.706 426.899 187.404 426.97 187.138 427.111C186.872 427.252 186.646 427.445 186.462 427.69C186.282 427.934 186.144 428.217 186.046 428.537C185.948 428.858 185.899 429.2 185.899 429.564ZM198.562 432.53V428.325C198.562 428.01 198.505 427.739 198.391 427.51C198.277 427.282 198.103 427.106 197.869 426.981C197.641 426.856 197.353 426.793 197.005 426.793C196.685 426.793 196.408 426.848 196.174 426.956C195.941 427.065 195.759 427.212 195.628 427.396C195.498 427.581 195.433 427.79 195.433 428.024H193.477C193.477 427.676 193.561 427.339 193.73 427.013C193.898 426.687 194.143 426.397 194.463 426.141C194.784 425.886 195.167 425.685 195.612 425.538C196.058 425.392 196.557 425.318 197.111 425.318C197.774 425.318 198.361 425.43 198.871 425.653C199.387 425.875 199.792 426.212 200.085 426.663C200.384 427.108 200.534 427.668 200.534 428.341V432.261C200.534 432.663 200.561 433.024 200.615 433.345C200.675 433.66 200.759 433.934 200.868 434.168V434.298H198.855C198.763 434.086 198.689 433.817 198.635 433.491C198.586 433.16 198.562 432.839 198.562 432.53ZM198.847 428.936L198.863 430.15H197.454C197.09 430.15 196.769 430.186 196.492 430.256C196.215 430.322 195.984 430.419 195.799 430.55C195.615 430.68 195.476 430.838 195.384 431.022C195.292 431.207 195.245 431.416 195.245 431.65C195.245 431.883 195.3 432.098 195.408 432.293C195.517 432.484 195.675 432.633 195.881 432.742C196.093 432.85 196.348 432.905 196.647 432.905C197.049 432.905 197.399 432.823 197.698 432.66C198.002 432.492 198.241 432.288 198.415 432.049C198.589 431.805 198.681 431.574 198.692 431.356L199.328 432.228C199.263 432.451 199.151 432.69 198.994 432.945C198.836 433.201 198.63 433.445 198.374 433.679C198.124 433.907 197.823 434.094 197.47 434.241C197.122 434.388 196.72 434.461 196.264 434.461C195.688 434.461 195.175 434.347 194.724 434.119C194.273 433.885 193.92 433.573 193.665 433.182C193.409 432.785 193.282 432.337 193.282 431.837C193.282 431.37 193.369 430.957 193.542 430.599C193.722 430.235 193.982 429.93 194.325 429.686C194.672 429.442 195.096 429.257 195.596 429.132C196.096 429.002 196.666 428.936 197.307 428.936H198.847ZM208.69 427.364V434.298H206.726V425.481H208.576L208.69 427.364ZM208.34 429.564L207.704 429.556C207.71 428.931 207.796 428.358 207.965 427.836C208.139 427.315 208.378 426.867 208.682 426.492C208.992 426.117 209.361 425.829 209.79 425.628C210.219 425.422 210.697 425.318 211.224 425.318C211.648 425.318 212.031 425.378 212.373 425.498C212.721 425.612 213.017 425.799 213.261 426.06C213.511 426.321 213.701 426.66 213.832 427.079C213.962 427.491 214.027 427.999 214.027 428.602V434.298H212.055V428.594C212.055 428.17 211.993 427.836 211.868 427.592C211.748 427.342 211.572 427.165 211.338 427.062C211.11 426.954 210.825 426.899 210.483 426.899C210.146 426.899 209.844 426.97 209.578 427.111C209.312 427.252 209.087 427.445 208.902 427.69C208.723 427.934 208.584 428.217 208.486 428.537C208.389 428.858 208.34 429.2 208.34 429.564ZM215.657 429.987V429.8C215.657 429.164 215.749 428.575 215.934 428.032C216.119 427.483 216.385 427.008 216.732 426.606C217.085 426.199 217.515 425.883 218.02 425.661C218.53 425.433 219.106 425.318 219.747 425.318C220.394 425.318 220.97 425.433 221.475 425.661C221.985 425.883 222.417 426.199 222.77 426.606C223.123 427.008 223.392 427.483 223.577 428.032C223.762 428.575 223.854 429.164 223.854 429.8V429.987C223.854 430.623 223.762 431.212 223.577 431.756C223.392 432.299 223.123 432.774 222.77 433.182C222.417 433.584 221.988 433.899 221.483 434.127C220.978 434.349 220.405 434.461 219.764 434.461C219.117 434.461 218.539 434.349 218.028 434.127C217.523 433.899 217.094 433.584 216.741 433.182C216.387 432.774 216.119 432.299 215.934 431.756C215.749 431.212 215.657 430.623 215.657 429.987ZM217.621 429.8V429.987C217.621 430.384 217.661 430.759 217.743 431.112C217.824 431.465 217.952 431.775 218.126 432.041C218.3 432.307 218.522 432.516 218.794 432.668C219.066 432.82 219.389 432.896 219.764 432.896C220.128 432.896 220.443 432.82 220.709 432.668C220.98 432.516 221.203 432.307 221.377 432.041C221.551 431.775 221.678 431.465 221.76 431.112C221.847 430.759 221.89 430.384 221.89 429.987V429.8C221.89 429.409 221.847 429.04 221.76 428.692C221.678 428.339 221.548 428.026 221.369 427.755C221.195 427.483 220.972 427.271 220.701 427.119C220.434 426.962 220.117 426.883 219.747 426.883C219.378 426.883 219.057 426.962 218.786 427.119C218.52 427.271 218.3 427.483 218.126 427.755C217.952 428.026 217.824 428.339 217.743 428.692C217.661 429.04 217.621 429.409 217.621 429.8ZM229.541 425.481V426.916H224.571V425.481H229.541ZM226.005 423.322H227.969V431.862C227.969 432.133 228.007 432.342 228.083 432.489C228.164 432.63 228.276 432.725 228.417 432.774C228.558 432.823 228.724 432.847 228.914 432.847C229.05 432.847 229.18 432.839 229.305 432.823C229.43 432.807 229.531 432.79 229.607 432.774L229.615 434.273C229.452 434.322 229.262 434.366 229.044 434.404C228.833 434.442 228.588 434.461 228.311 434.461C227.86 434.461 227.461 434.382 227.113 434.225C226.766 434.062 226.494 433.798 226.298 433.434C226.103 433.07 226.005 432.587 226.005 431.984V423.322ZM233.159 425.481V434.298H231.187V425.481H233.159ZM231.057 423.167C231.057 422.869 231.155 422.621 231.35 422.426C231.551 422.225 231.828 422.124 232.182 422.124C232.529 422.124 232.804 422.225 233.005 422.426C233.206 422.621 233.306 422.869 233.306 423.167C233.306 423.461 233.206 423.705 233.005 423.901C232.804 424.096 232.529 424.194 232.182 424.194C231.828 424.194 231.551 424.096 231.35 423.901C231.155 423.705 231.057 423.461 231.057 423.167ZM237.836 434.298H235.865V424.911C235.865 424.199 236.006 423.599 236.288 423.11C236.576 422.621 236.986 422.249 237.519 421.994C238.056 421.739 238.695 421.611 239.433 421.611C239.868 421.611 240.286 421.657 240.688 421.75C241.096 421.842 241.517 421.959 241.951 422.1L241.65 423.697C241.373 423.605 241.066 423.518 240.729 423.436C240.392 423.349 240.004 423.306 239.564 423.306C238.972 423.306 238.534 423.442 238.252 423.713C237.975 423.979 237.836 424.379 237.836 424.911V434.298ZM239.605 425.481V426.916H234.512V425.481H239.605ZM242.88 425.481V434.298H240.916V425.481H242.88ZM248.674 432.896C248.994 432.896 249.282 432.834 249.537 432.709C249.798 432.579 250.007 432.399 250.165 432.171C250.328 431.943 250.417 431.68 250.434 431.381H252.283C252.272 431.951 252.104 432.47 251.778 432.937C251.452 433.404 251.02 433.776 250.483 434.053C249.945 434.325 249.35 434.461 248.698 434.461C248.024 434.461 247.438 434.347 246.938 434.119C246.438 433.885 246.023 433.565 245.691 433.157C245.36 432.75 245.11 432.28 244.942 431.747C244.779 431.215 244.697 430.645 244.697 430.036V429.751C244.697 429.143 244.779 428.572 244.942 428.04C245.11 427.502 245.36 427.03 245.691 426.622C246.023 426.215 246.438 425.897 246.938 425.669C247.438 425.435 248.022 425.318 248.69 425.318C249.396 425.318 250.015 425.46 250.548 425.742C251.08 426.019 251.498 426.408 251.803 426.907C252.112 427.402 252.272 427.978 252.283 428.635H250.434C250.417 428.309 250.336 428.016 250.189 427.755C250.048 427.489 249.847 427.277 249.586 427.119C249.331 426.962 249.024 426.883 248.665 426.883C248.269 426.883 247.94 426.964 247.68 427.127C247.419 427.285 247.215 427.502 247.068 427.779C246.922 428.051 246.816 428.358 246.751 428.7C246.691 429.037 246.661 429.387 246.661 429.751V430.036C246.661 430.4 246.691 430.753 246.751 431.096C246.81 431.438 246.914 431.745 247.06 432.016C247.212 432.283 247.419 432.497 247.68 432.66C247.94 432.818 248.272 432.896 248.674 432.896ZM258.761 432.53V428.325C258.761 428.01 258.704 427.739 258.59 427.51C258.476 427.282 258.302 427.106 258.069 426.981C257.84 426.856 257.553 426.793 257.205 426.793C256.884 426.793 256.607 426.848 256.374 426.956C256.14 427.065 255.958 427.212 255.828 427.396C255.697 427.581 255.632 427.79 255.632 428.024H253.677C253.677 427.676 253.761 427.339 253.929 427.013C254.098 426.687 254.342 426.397 254.663 426.141C254.983 425.886 255.366 425.685 255.812 425.538C256.257 425.392 256.757 425.318 257.311 425.318C257.974 425.318 258.56 425.43 259.071 425.653C259.587 425.875 259.992 426.212 260.285 426.663C260.584 427.108 260.733 427.668 260.733 428.341V432.261C260.733 432.663 260.76 433.024 260.815 433.345C260.874 433.66 260.959 433.934 261.067 434.168V434.298H259.055C258.962 434.086 258.889 433.817 258.835 433.491C258.786 433.16 258.761 432.839 258.761 432.53ZM259.046 428.936L259.063 430.15H257.653C257.289 430.15 256.969 430.186 256.692 430.256C256.414 430.322 256.184 430.419 255.999 430.55C255.814 430.68 255.676 430.838 255.583 431.022C255.491 431.207 255.445 431.416 255.445 431.65C255.445 431.883 255.499 432.098 255.608 432.293C255.716 432.484 255.874 432.633 256.08 432.742C256.292 432.85 256.548 432.905 256.846 432.905C257.248 432.905 257.599 432.823 257.897 432.66C258.202 432.492 258.441 432.288 258.615 432.049C258.788 431.805 258.881 431.574 258.892 431.356L259.527 432.228C259.462 432.451 259.351 432.69 259.193 432.945C259.036 433.201 258.829 433.445 258.574 433.679C258.324 433.907 258.022 434.094 257.669 434.241C257.322 434.388 256.92 434.461 256.463 434.461C255.888 434.461 255.374 434.347 254.923 434.119C254.472 433.885 254.119 433.573 253.864 433.182C253.609 432.785 253.481 432.337 253.481 431.837C253.481 431.37 253.568 430.957 253.742 430.599C253.921 430.235 254.182 429.93 254.524 429.686C254.872 429.442 255.295 429.257 255.795 429.132C256.295 429.002 256.865 428.936 257.506 428.936H259.046ZM266.388 432.896C266.708 432.896 266.996 432.834 267.252 432.709C267.512 432.579 267.722 432.399 267.879 432.171C268.042 431.943 268.132 431.68 268.148 431.381H269.998C269.987 431.951 269.818 432.47 269.492 432.937C269.167 433.404 268.735 433.776 268.197 434.053C267.659 434.325 267.064 434.461 266.412 434.461C265.739 434.461 265.152 434.347 264.652 434.119C264.153 433.885 263.737 433.565 263.406 433.157C263.074 432.75 262.824 432.28 262.656 431.747C262.493 431.215 262.412 430.645 262.412 430.036V429.751C262.412 429.143 262.493 428.572 262.656 428.04C262.824 427.502 263.074 427.03 263.406 426.622C263.737 426.215 264.153 425.897 264.652 425.669C265.152 425.435 265.736 425.318 266.404 425.318C267.11 425.318 267.73 425.46 268.262 425.742C268.794 426.019 269.213 426.408 269.517 426.907C269.827 427.402 269.987 427.978 269.998 428.635H268.148C268.132 428.309 268.05 428.016 267.904 427.755C267.762 427.489 267.561 427.277 267.301 427.119C267.045 426.962 266.738 426.883 266.38 426.883C265.983 426.883 265.655 426.964 265.394 427.127C265.133 427.285 264.929 427.502 264.783 427.779C264.636 428.051 264.53 428.358 264.465 428.7C264.405 429.037 264.375 429.387 264.375 429.751V430.036C264.375 430.4 264.405 430.753 264.465 431.096C264.525 431.438 264.628 431.745 264.775 432.016C264.927 432.283 265.133 432.497 265.394 432.66C265.655 432.818 265.986 432.896 266.388 432.896ZM273.607 425.481V434.298H271.635V425.481H273.607ZM271.505 423.167C271.505 422.869 271.603 422.621 271.798 422.426C271.999 422.225 272.276 422.124 272.63 422.124C272.977 422.124 273.252 422.225 273.453 422.426C273.654 422.621 273.754 422.869 273.754 423.167C273.754 423.461 273.654 423.705 273.453 423.901C273.252 424.096 272.977 424.194 272.63 424.194C272.276 424.194 271.999 424.096 271.798 423.901C271.603 423.705 271.505 423.461 271.505 423.167ZM275.384 429.987V429.8C275.384 429.164 275.476 428.575 275.661 428.032C275.845 427.483 276.112 427.008 276.459 426.606C276.812 426.199 277.241 425.883 277.747 425.661C278.257 425.433 278.833 425.318 279.474 425.318C280.121 425.318 280.696 425.433 281.202 425.661C281.712 425.883 282.144 426.199 282.497 426.606C282.85 427.008 283.119 427.483 283.304 428.032C283.488 428.575 283.581 429.164 283.581 429.8V429.987C283.581 430.623 283.488 431.212 283.304 431.756C283.119 432.299 282.85 432.774 282.497 433.182C282.144 433.584 281.715 433.899 281.21 434.127C280.704 434.349 280.131 434.461 279.49 434.461C278.844 434.461 278.265 434.349 277.755 434.127C277.25 433.899 276.82 433.584 276.467 433.182C276.114 432.774 275.845 432.299 275.661 431.756C275.476 431.212 275.384 430.623 275.384 429.987ZM277.347 429.8V429.987C277.347 430.384 277.388 430.759 277.47 431.112C277.551 431.465 277.679 431.775 277.853 432.041C278.026 432.307 278.249 432.516 278.521 432.668C278.792 432.82 279.116 432.896 279.49 432.896C279.854 432.896 280.169 432.82 280.436 432.668C280.707 432.516 280.93 432.307 281.104 432.041C281.278 431.775 281.405 431.465 281.487 431.112C281.574 430.759 281.617 430.384 281.617 429.987V429.8C281.617 429.409 281.574 429.04 281.487 428.692C281.405 428.339 281.275 428.026 281.096 427.755C280.922 427.483 280.699 427.271 280.427 427.119C280.161 426.962 279.843 426.883 279.474 426.883C279.105 426.883 278.784 426.962 278.513 427.119C278.246 427.271 278.026 427.483 277.853 427.755C277.679 428.026 277.551 428.339 277.47 428.692C277.388 429.04 277.347 429.409 277.347 429.8ZM278.447 424.235L280.036 421.782H282.253L280.036 424.235H278.447ZM287.174 427.364V434.298H285.21V425.481H287.06L287.174 427.364ZM286.824 429.564L286.188 429.556C286.194 428.931 286.281 428.358 286.449 427.836C286.623 427.315 286.862 426.867 287.166 426.492C287.476 426.117 287.845 425.829 288.274 425.628C288.703 425.422 289.181 425.318 289.708 425.318C290.132 425.318 290.515 425.378 290.857 425.498C291.205 425.612 291.501 425.799 291.745 426.06C291.995 426.321 292.185 426.66 292.316 427.079C292.446 427.491 292.511 427.999 292.511 428.602V434.298H290.539V428.594C290.539 428.17 290.477 427.836 290.352 427.592C290.233 427.342 290.056 427.165 289.822 427.062C289.594 426.954 289.309 426.899 288.967 426.899C288.63 426.899 288.329 426.97 288.062 427.111C287.796 427.252 287.571 427.445 287.386 427.69C287.207 427.934 287.068 428.217 286.971 428.537C286.873 428.858 286.824 429.2 286.824 429.564Z" fill="black"/>
<circle opacity="0.3" cx="325.5" cy="176.5" r="77.5" fill="#0449FB"/>
<circle opacity="0.3" cx="325.5" cy="176.5" r="62" fill="#6D94FB"/>
<circle opacity="0.3" cx="7.5" cy="563.5" r="77.5" fill="#0449FB"/>
<circle opacity="0.3" cx="7.5" cy="563.5" r="62" fill="#6D94FB"/>
<circle opacity="0.3" cx="284.5" cy="737.5" r="41.5" fill="#0449FB"/>
<circle opacity="0.3" cx="284.5" cy="737.5" r="33.2" fill="#6D94FB"/>
<g opacity="0.5" clip-path="url(#clip1_690_4)">
<path d="M340.357 177.145L340.788 176.177C343.15 170.858 340.911 164.701 335.787 162.425C330.662 160.149 324.593 162.616 322.231 167.934L321.8 168.903C321.284 170.065 320.448 171.055 319.397 171.746L316.821 173.44C314.469 174.987 314.224 178.402 316.338 180.161C321.87 184.762 328.544 187.726 335.666 188.746C338.389 189.135 340.758 186.664 340.329 183.881L339.859 180.835C339.668 179.592 339.841 178.308 340.357 177.145Z" stroke="black" stroke-opacity="0.8" stroke-width="2.25643"/>
<path d="M319.219 183.049C319.052 185.851 320.717 188.652 323.574 189.921C326.43 191.189 329.624 190.547 331.592 188.544" stroke="black" stroke-opacity="0.8" stroke-width="2.25643" stroke-linecap="round"/>
</g>
<g opacity="0.5" clip-path="url(#clip2_690_4)">
<path d="M292.75 733.113L292.22 732.195C289.31 727.155 283.014 725.342 278.159 728.146C273.303 730.949 271.725 737.308 274.635 742.348L275.165 743.265C275.801 744.367 276.108 745.625 276.049 746.882L275.903 749.961C275.77 752.773 278.386 754.981 281.052 754.307C288.028 752.542 294.352 748.891 299.368 743.732C301.285 741.76 300.681 738.391 298.179 737.1L295.44 735.687C294.322 735.11 293.386 734.215 292.75 733.113Z" stroke="black" stroke-opacity="0.8" stroke-width="2.25643"/>
<path d="M285.083 753.677C287.251 755.461 290.495 755.763 293.202 754.201C295.908 752.638 297.269 749.677 296.808 746.908" stroke="black" stroke-opacity="0.8" stroke-width="2.25643" stroke-linecap="round"/>
</g>
<g opacity="0.5" clip-path="url(#clip3_690_4)">
<path d="M14.7404 576.243L15.6583 575.713C20.6983 572.803 22.5113 566.507 19.7078 561.652C16.9042 556.796 10.5457 555.218 5.50573 558.128L4.58781 558.658C3.48616 559.294 2.22793 559.601 0.971405 559.542L-2.10762 559.396C-4.92002 559.263 -7.12786 561.879 -6.45337 564.545C-4.68895 571.521 -1.03762 577.845 4.12119 582.861C6.09328 584.778 9.46276 584.174 10.7535 581.672L12.1666 578.932C12.7433 577.815 13.6388 576.879 14.7404 576.243Z" stroke="black" stroke-opacity="0.8" stroke-width="2.25643"/>
<path d="M-5.82373 568.576C-7.608 570.743 -7.90995 573.988 -6.34734 576.694C-4.78476 579.401 -1.82404 580.762 0.945562 580.3" stroke="black" stroke-opacity="0.8" stroke-width="2.25643" stroke-linecap="round"/>
</g>
</g>
<defs>
<clipPath id="clip0_690_4">
<rect width="360" height="849" fill="white"/>
</clipPath>
<clipPath id="clip1_690_4">
<rect width="36.1029" height="36.1029" fill="white" transform="translate(320.51 152.348) rotate(23.9494)"/>
</clipPath>
<clipPath id="clip2_690_4">
<rect width="36.1029" height="36.1029" fill="white" transform="translate(261.021 734.566) rotate(-30)"/>
</clipPath>
<clipPath id="clip3_690_4">
<rect width="36.1029" height="36.1029" fill="white" transform="translate(13.2876 544.514) rotate(60)"/>
</clipPath>
</defs>
</svg>
