<?xml version="1.0" encoding="iso-8859-1"?>
<!-- Uploaded to: SVG Repo, www.svgrepo.com, Generator: SVG Repo Mixer Tools -->
<svg fill="#000000" height="800px" width="800px" version="1.1" id="Layer_1" xmlns="http://www.w3.org/2000/svg" xmlns:xlink="http://www.w3.org/1999/xlink" 
	 viewBox="0 0 511.997 511.997" xml:space="preserve">
<g>
	<g>
		<path d="M479.569,124.787L260.256,1.118c-2.643-1.491-5.873-1.491-8.514,0L32.43,124.787c-2.725,1.536-4.41,4.422-4.41,7.549
			v247.326c0,3.128,1.686,6.014,4.41,7.55l23.451,13.222l-12.065,12.068c-5.4,5.399-8.375,12.58-8.378,20.216
			c-0.002,7.641,2.972,14.826,8.376,20.229c5.576,5.576,12.897,8.364,20.222,8.362c7.322,0,14.648-2.789,20.222-8.362l23.352-23.348
			l144.133,81.281c1.321,0.745,2.789,1.118,4.258,1.118c1.469,0,2.937-0.372,4.258-1.118l148.753-83.881
			c4.17-2.351,5.644-7.637,3.294-11.808c-2.351-4.17-7.638-5.644-11.808-3.293L264.67,488.491v-79.945
			c0-4.787-3.88-8.668-8.668-8.668c-4.788,0-8.668,3.881-8.668,8.668v79.945l-126.997-71.616l37.284-37.279
			c18.465,11.041,39.333,16.569,60.205,16.569c30.034,0,60.067-11.432,82.932-34.297c45.727-45.728,45.727-120.134,0-165.862
			c-45.73-45.729-120.134-45.729-165.864,0c-22.151,22.152-34.351,51.604-34.351,82.931c0,21.554,5.776,42.22,16.594,60.233
			l-48.53,48.538l-23.251-13.11V147.172l77.002,43.412c4.17,2.349,9.456,0.876,11.807-3.294c2.351-4.17,0.877-9.456-3.294-11.806
			l-76.538-43.148L256,18.619l201.665,113.718l-127.916,72.128c-4.17,2.352-5.644,7.638-3.294,11.808
			c1.593,2.824,4.531,4.412,7.558,4.412c1.441,0,2.904-0.361,4.249-1.119l128.38-72.391V374.6l-32.429,18.287
			c-4.17,2.351-5.644,7.637-3.294,11.808c1.593,2.823,4.531,4.411,7.558,4.411c1.442,0,2.904-0.361,4.249-1.12l36.839-20.774
			c2.725-1.536,4.41-4.422,4.41-7.55V132.336C483.979,129.209,482.294,126.323,479.569,124.787z M147.15,208.265
			c19.486-19.487,45.076-29.227,70.673-29.227c25.592,0,51.192,9.745,70.673,29.227c38.969,38.969,38.969,102.378,0,141.347
			c-38.968,38.969-102.379,38.969-141.347,0c-18.878-18.877-29.274-43.977-29.274-70.673S128.272,227.143,147.15,208.265z
			 M127.3,353.518c2.383,2.886,4.913,5.672,7.592,8.351c2.688,2.688,5.48,5.213,8.354,7.585l-71.245,71.235
			c-4.392,4.392-11.537,4.393-15.929,0c-2.129-2.129-3.299-4.958-3.299-7.967c0.001-3.008,1.173-5.836,3.299-7.964L127.3,353.518z"
			/>
	</g>
</g>
<g>
	<g>
		<path d="M278.261,218.503c-33.325-33.325-87.549-33.325-120.874,0c-3.385,3.385-3.385,8.873,0,12.257
			c3.386,3.385,8.873,3.385,12.258,0c12.868-12.868,29.978-19.956,48.178-19.956c18.2,0,35.311,7.088,48.178,19.956
			c12.87,12.868,19.957,29.978,19.957,48.178s-7.088,35.309-19.957,48.179c-13.283,13.284-30.728,19.926-48.178,19.924
			c-17.446-0.001-34.897-6.643-48.178-19.924c-19.408-19.408-25.284-48.385-14.968-73.822c1.799-4.435-0.339-9.49-4.775-11.29
			c-4.434-1.801-9.492,0.339-11.29,4.775c-12.938,31.906-5.568,68.252,18.774,92.595c16.664,16.662,38.551,24.993,60.438,24.993
			c21.886,0,43.775-8.33,60.437-24.993c16.143-16.144,25.033-37.607,25.033-60.436S294.404,234.645,278.261,218.503z"/>
	</g>
</g>
<g>
	<g>
		<path d="M217.824,228.193c-4.788,0-8.668,3.881-8.668,8.668s3.88,8.668,8.668,8.668c18.423,0,33.411,14.988,33.411,33.411
			c0,4.787,3.88,8.668,8.668,8.668c4.788,0,8.668-3.881,8.668-8.668C268.57,250.958,245.805,228.193,217.824,228.193z"/>
	</g>
</g>
</svg>